<?xml version="1.0" encoding="utf-8"?>
<!-- Generator: Adobe Illustrator 17.1.0, SVG Export Plug-In . SVG Version: 6.00 Build 0)  -->
<!DOCTYPE svg PUBLIC "-//W3C//DTD SVG 1.1//EN" "http://www.w3.org/Graphics/SVG/1.1/DTD/svg11.dtd">
<svg version="1.1" id="Layer_1" xmlns="http://www.w3.org/2000/svg" xmlns:xlink="http://www.w3.org/1999/xlink" x="0px" y="0px"
	 viewBox="0 0 100 100" enable-background="new 0 0 100 100" xml:space="preserve">
<g>
	<path fill="#4A4A4A" d="M13.1,23.6c3.4,2.6,7.2,3.2,10.9,4.4c6.7,2.4,12.7,6,16.4,12.3c1.9,3.3,4.6,4,8,3.8c1.7-0.1,3.5,0,5.1-0.4
		c1.1-0.3,2.4-1,3-1.9c2.8-4.4,6.6-7.7,11.3-10c5.1-2.6,10.3-5,15.8-6.6c1.4-0.4,2.8-0.8,4.2-1.1c1.2-0.3,1.7,0.4,2.3,1.4
		c2.5,4.7,3.9,9.8,5,15.1c1.5,7.3,2.1,14.5-0.2,21.8c-0.9,2.9-1.1,5.9-1.7,8.9c-0.2,1.1-0.8,2.2-1,3.3c-0.3,1.3-1.1,1.6-2.3,1.4
		c-2.6-0.5-5.3-0.8-7.8-1.6c-4.4-1.3-8.9-2.6-13.1-4.6c-4.9-2.3-9.2-5.5-12-10.3c-0.3-0.6-1-1-1.6-1.3c-3.8-1.6-7.6-0.8-11.3,0.1
		c-0.6,0.2-1.2,0.8-1.5,1.4c-2.3,4.5-6.4,7.1-10.6,9.6c-5.4,3.4-11.5,4.4-17.5,5.9c-1.6,0.4-3.3,0.4-5,0.4c-1.2,0.1-2-0.4-2.1-1.7
		c-0.2-1.7-0.5-3.4-0.8-5.1C6,66,5.3,63.2,4.8,60.4c-1.2-6.8-1.2-13.6,0.4-20.3c1.1-4.8,2.8-9.6,4.1-14.4c0.3-1,0.8-1.4,1.7-0.9
		C12.1,25.2,12.7,24.9,13.1,23.6z"/>
</g>
</svg>
