<?xml version="1.0" encoding="utf-8"?>
<!-- Generator: Adobe Illustrator 17.1.0, SVG Export Plug-In . SVG Version: 6.00 Build 0)  -->
<!DOCTYPE svg PUBLIC "-//W3C//DTD SVG 1.1//EN" "http://www.w3.org/Graphics/SVG/1.1/DTD/svg11.dtd">
<svg version="1.1" id="Layer_1" xmlns="http://www.w3.org/2000/svg" xmlns:xlink="http://www.w3.org/1999/xlink" x="0px" y="0px"
	 viewBox="0 0 100 100" enable-background="new 0 0 100 100" xml:space="preserve">
<g>
	<path fill="none" d="M53.4,45.1c0-1.8,0-3.5,0-5.2c-0.3,0.1-0.6-0.1-0.6-0.5c0-0.6,0.1-1.2,0-1.8c0-0.2,0-0.4,0.2-0.5
		c-0.8-1.5-1.6-3.1-2.4-4.7c-0.5-0.9-1.2-1.6-2-2.3c-0.1,0-0.2,0-0.3-0.2C48.1,30,48,29.9,48,29.8c-0.3-0.3-0.7-0.5-1-0.8
		c-0.1,0-0.1-0.1-0.2-0.1c-0.5-0.1-1.1-0.2-1.6-0.5c-0.1-0.1-0.2-0.1-0.2-0.2c-0.3-0.1-0.6-0.1-1.1-0.2c-1.7,6.2-3.4,12.4-5.1,18.5
		c-0.9-0.8-1.8-1.7-2.7-2.5c-0.3,0.3-0.5,0.6-0.8,0.8c0.5,0.6,1.1,1.1,1.6,1.7c0.2,0.2,0.4,0.6,0.3,0.9c-0.3,1.1-0.4,2.2-0.4,3.3
		c0.4,0,0.7,0,1.1,0c0-0.8,0.1-1.7,0.1-2.5c0-0.1,0.1-0.2,0.2-0.4c0.8,0.8,1.7,0.5,2.6,0.2c1.4-0.5,2.8-1.1,4.3-1.4
		c2.5-0.6,5-0.8,7.5-0.7c0.2,0,0.5,0,0.7,0v-0.4C53.3,45.3,53.3,45.2,53.4,45.1z"/>
	<path fill="none" d="M37.7,24c0-0.9-0.2-1.9-0.4-2.8c-0.5-1.7-1.5-2.4-3.3-2.4c-1.6,0-1.8-0.2-1-1.6c0.3-0.6,0.7-1.2,1.1-1.7
		c-0.3-0.2-0.6-0.3-0.9-0.5c-0.3,0.5-0.5,0.9-0.7,1.4c-0.1,0.2-0.2,0.4-0.3,0.6c-0.8,1.8-0.9,1.9-3.2,1.9c-0.1-1.4,0.5-2.6,0.9-3.9
		c1-2.6,3.2-4,5.4-5.3c0.8-0.5,1.5-1.1,2.2-1.7c0.7-0.7,1.4-0.3,2.1-0.2c1.5,0.3,2.8,0,4.1-0.9c0.2-0.1,0.3-0.3,0.5-0.5
		c0-0.1-0.1-0.1-0.1-0.2c-0.2,0.1-0.4,0.1-0.5,0.2c-1.2,0.9-2.5,0.8-3.9,0.5c-3.4-0.8-6.8-1.4-10.3-1.3c-2.1,0-3.1,0.9-3.3,2.9
		c-0.5,5.7-1.4,11.4-1.3,17.1c0,0.7,0.1,1.2,1,1.2c1.6-0.1,2.1,0.8,2.3,2.3c0,0,0,0.1,0,0.1c0.3,0,0.6,0,0.9,0
		c-0.1-0.4-0.1-0.7-0.3-1.1c-0.1-0.4-0.2-0.8-0.2-1.1c-0.1-0.7,0.3-1.2,1-1.4c0.7-0.2,1.2,0.1,1.4,0.7c0.2,0.6,0.3,1.2,0.6,2.2
		c-0.1,0.3-0.1,0.5-0.2,0.8c0.3,0,0.6,0,0.9,0c0-1.2-0.1-2.3-0.5-3.6c-0.4-1.1-1.3-1.5-2.4-1c-0.6,0.3-1.2,0.7-1.6,1.2
		c-0.5,0.6-1,0.6-1.6,0.4c-0.7-0.1-0.6-0.7-0.6-1.1c-0.2-1.2,0.5-2,1.1-2.8c1-1.4,2.3-2.2,3.9-2.7c0.7-0.2,1.2,0.1,1.5,0.8
		c0.7,1.7,1.1,4.2,1,7.5c0,0.4-0.1,0.9-0.1,1.3c0.3,0,0.5,0,0.8,0.1c0-0.4,0.1-0.8,0.1-1.2c0.2-2.6-0.3-5.1-1-7.5
		c-0.1-0.3-0.1-0.6-0.2-1c0.9,0.1,1.7,0.1,2.4,0.3c0.3,0.1,0.6,0.5,0.8,0.8c0.7,1.3,1,2.6,1,4.1c0,1.6-0.1,3.2-0.2,4.8
		c0.3,0,0.6,0.1,0.9,0.1C37.8,27.9,37.8,26,37.7,24z"/>
	<path fill="none" d="M59,64c-1.2,0.1-2.5,0.4-3.7,0.8c-0.6,0.2-1,0.6-1.2,1.1c0.3,0,0.7,0,1,0c0.2-0.2,0.5-0.4,0.9-0.5
		c1.5-0.4,3-0.7,4.5-0.8c4-0.3,8,0.5,11.7,1.9c0.1,0.1,0.3,0.1,0.4,0.2c0.1,0,0.2,0.1,0.2,0.3c-0.9-0.2-1.8-0.4-2.6-0.6
		c-0.7-0.1-1.5-0.2-2.2-0.3c-0.5-0.1-0.7,0.3-0.7,0.8c0,1.3,0.5,1.7,1.9,1.9c2,0.3,4,0.8,6,1.2c0.3,0.1,0.6,0.3,0.9,0.5
		c-0.5,0.9-1.2,1.1-1.9,1.3c-2.1,0.5-4.3,0.5-6.4,0.1c-3.1-0.5-6.1-1.1-8.9-2.4c-1.2-0.5-2.3-1.3-3.3-2.1c-0.2-0.2-0.4-0.3-0.5-0.5
		c-0.3,0-0.7,0-1,0c0.1,0.4,0.3,0.8,0.6,1.1c1,1.1,2.3,1.8,3.6,2.3c3.8,1.5,7.7,2.5,11.8,2.7c0.1,0,0.3,0.1,0.2,0
		c-0.2,0.5-0.6,0.9-0.6,1.4c-0.1,0.6-0.1,1.3-0.2,1.9c0.3,0,0.6,0.1,0.8,0.1c0.1-0.5,0.2-1.1,0.2-1.6c0.1-0.6,0.4-0.9,1.1-0.8
		c1.6,0.3,2.2,1,2.2,2.5c0.3-0.1,0.6-0.2,0.9-0.3c-0.1-1.7-0.9-2.5-2.7-3.1c-0.2-0.1-0.4-0.1-0.6-0.1c1.2-0.2,2.4-0.4,3.6-0.7
		c0.2,0,0.4-0.1,0.6-0.2c1.7-0.7,2.1-1.4,0.9-3.2c-0.2-0.3-0.4-0.5-0.7-0.1c-0.1,0.1-0.4,0.1-0.5,0.1c-2.2-0.4-4.3-0.8-6.5-1.2
		c-0.3-0.1-0.5-0.6-0.8-0.9c0.1-0.1,0.1-0.2,0.2-0.3c2.3,0.4,4.5,0.8,7.1,1.3c-0.2-0.4-0.3-0.7-0.5-0.8c-0.7-0.5-1.4-1-2.2-1.3
		C68.2,64.1,63.6,63.6,59,64z"/>
	<path d="M78.9,64.8c0.9,0.7,1.8,1.3,2.7,1.9c0-0.3,0-0.6,0-0.9c-0.4-0.4-0.7-0.7-1.1-1.1c-0.4-0.5-0.7-1.1-1.2-1.4
		c-2.9-1.7-5.9-3.1-9.3-3.7c-0.9-0.2-1.9-0.3-2.7,0.5c0.2,0.1,0.3,0.2,0.4,0.2c1.9,0.6,3.7,1.2,5.6,1.9c0.4,0.1,0.8,0.3,1.1,0.4
		c-0.2,1-0.6,2-0.8,3c-0.1-0.1-0.3-0.1-0.4-0.2c-3.6-1.3-7.4-2-11.2-2.3c-3.6-0.4-7,0.3-9.8,2.8c-0.5,0.4-0.9,1.1-1.1,1.7
		c-0.3,0.7-0.5,1.5-0.6,2.3c-0.1,0.5-0.2,0.9-0.2,1.2h-3.6c-0.1,0-0.2-0.1-0.3-0.1c-0.5-0.2-1-0.5-1.5-0.4c-0.4,0-1,0.2-1.2,0.5
		c-0.4,0.4-0.1,0.9,0.3,1.3c0.2,0.1,0.3,0.3,0.4,0.5c0,0-0.1,0.1-0.1,0.1c-0.3-0.1-0.6-0.2-0.9-0.3c-0.1,0.2-0.2,0.4-0.3,0.7
		c-0.5-0.1-0.9-0.2-1.4-0.2c-0.6-0.1-1.2-0.1-1.9-0.1c-0.1-0.4-0.3-0.7-0.5-1.1c-1.5-1.9-2.9-3.8-4.3-5.7c-0.4-0.6-1-0.8-1.6-0.7
		c-1.3,0.2-2.5-0.2-3.6-0.9c-2-1.2-3.2-3.1-4.4-5c-0.9-1.4-0.2-2.4,1.5-2.4c0.7,0,1.4,0,2.1,0c0.1,0.1,0.2,0.1,0.3,0.1
		c0.3,0,0.6,0,0.8,0c0,0.7,0.1,1.4,0.1,2c0,1,0.6,1.6,1.4,1.9c0,0.2-0.1,0.4-0.1,0.6c-0.1,0-0.2,0-0.3,0c-0.2,0-0.5,0.2-0.6,0.4
		c-0.3,1,0.2,1.9,1.2,2.1c0.3,0.1,0.5,0.1,0.8,0.2c1,0.2,1.4-0.1,1.5-1.2c-0.2-0.3-0.4-0.8-0.7-1c-0.3-0.1-0.6-0.2-0.9-0.2
		c0-0.1,0-0.3,0.1-0.4c0.8,0.2,1.5,0.1,2.2-0.5c0.3-0.3,0.5-0.7,0.6-1.1c0.2-0.7,0.2-1.4,0.3-2.1c0.4,0,0.8,0,1.2,0
		c0,0.1,0,0.3,0,0.5c0,0.1,0,0.1,0,0.1c4.3,0.7,8.5,1.5,12.8,2.2c-0.1-0.2-0.2-0.2-0.4-0.3c-2.8-0.9-5.6-1.8-8.5-2.7
		c0.2-0.3,0.4-0.6,0.6-0.8c1.8,0.5,3.5,0.6,5.3,0.7c4.3,0.2,8.7,0.3,13,0.5c0.7,0,1.4,0.3,2.1,0.5c0.7,0.2,1.4,0.6,2.2,0.9
		c-0.1-0.5-0.2-0.9-0.2-1.3c0-0.5-0.3-0.8-0.8-0.8c-3.2-0.5-6.4-1.3-9.6-1.5c-3.9-0.3-7.9-0.4-11.8-0.4v-0.7c0.5,0,0.9-0.1,1.4-0.1
		c0-0.4,0-0.6,0-1c-0.5,0-0.9,0-1.4,0.1v-0.6c5.1-0.8,10.2-0.5,15.3,0.5c1.9,0.4,3.7,0.9,5.7,1.3c0-0.4,0.1-0.6,0.1-0.9
		c0.1-1.2,0.1-1.2-1-1.5c-1.2-0.4-2.5-0.7-3.7-1c-1.9-0.5-3.8-1-5.8-1.3c-3.6-0.5-7.3-0.4-11,0c-0.2,0-0.4,0-0.6,0
		c0-0.1,0-0.1,0-0.2c0.3-0.2,0.6-0.4,0.9-0.5c1.1-0.2,2.2-0.6,3.4-0.6c3.6-0.1,7.2-0.1,10.8,0c2.5,0.1,5.1,0.4,7.4,1.6
		c0.2,0.1,0.5,0,0.6-0.1c0.4-0.5,0.8-0.9,1.2-1.5c0,0,0,0,0,0c-0.2,0-0.4,0-0.6,0c-0.6,0-0.6-1,0-1c0.1,0,0.2,0,0.3,0
		c-0.5-0.2-1-0.4-1.5-0.6c-2.9-0.9-5.8-1.5-8.8-1.7v0.7c0,0.6-1,0.6-1,0v-0.8c-0.2,0-0.5,0-0.7,0c-2.5-0.1-5.1,0-7.5,0.7
		c-1.4,0.4-2.8,1-4.3,1.4c-0.9,0.3-1.7,0.6-2.6-0.2C38.2,48,38,48.1,38,48.2c0,0.8-0.1,1.7-0.1,2.5c-0.4,0-0.7,0-1.1,0
		c0-1.1,0.2-2.2,0.4-3.3c0.1-0.3-0.1-0.7-0.3-0.9c-0.5-0.6-1.1-1.1-1.6-1.7c0.3-0.3,0.5-0.6,0.8-0.8c0.9,0.9,1.8,1.7,2.7,2.5
		c1.7-6.1,3.4-12.3,5.1-18.5c0.4,0.1,0.7,0.1,1.1,0.2c0,0.1,0.1,0.2,0.2,0.2c0.5,0.2,1,0.3,1.6,0.5c0.1,0,0.1,0.1,0.2,0.1
		c0.3,0.3,0.7,0.5,1,0.8c0.1,0.1,0.1,0.2,0.2,0.2c0.1,0.1,0.2,0.2,0.3,0.2c0.8,0.6,1.6,1.3,2,2.3c0.8,1.6,1.6,3.2,2.4,4.7
		c-0.1,0.1-0.2,0.3-0.2,0.5c0.1,0.6,0,1.2,0,1.8c0,0.4,0.4,0.5,0.6,0.5c0,1.7,0,3.4,0,5.2c0.2-0.2,0.7-0.2,0.8,0.2c0,0,0,0,0,0
		c-0.7-1.8-0.4-3.6-0.8-5.4c0.2-0.1,0.3-0.2,0.3-0.4c0-0.7,0-1.4-0.1-2c0.2-0.1,0.5-0.2,0.7-0.2c0.1,0,0.2,0,0.3,0
		c0.1,0,0.2,0,0.2-0.1c0,0,0,0,0.1,0c1.9-0.4,3.7-0.7,5.6-0.3c1.4,0.3,2.8,0.6,4.3,0.9c0.2-0.8,0.1-1.1-1-1.4
		c-2.3-0.7-4.6-0.9-6.9-0.7c-0.8,0.1-1.5,0.3-2.3,0.4c-0.1,0-0.3,0.1-0.4,0.1c-0.3,0.1-0.6,0.2-1,0.2c-0.2,0-0.3,0.1-0.3,0.1
		c-0.6-2.2-2.3-5-4.1-6.8c0-0.2,0-0.3-0.1-0.5c-0.4-0.4-0.8-0.8-1.3-1.1c-0.6-0.4-1.3-0.3-1.9-0.6c-0.2-0.1-0.5,0-0.6,0.1
		c-0.1-0.5-0.4-0.9-0.9-1c-0.9-0.2-1.2-0.7-1-1.5c0.1-0.8,0.2-1.5,0.3-2.2c1,0,2,0,3,0c0.3,0,0.6,0,0.9-0.1c0.6,1,1.8,1.7,3,1.7
		c1.7,0,2.9-1.3,3-3.2c0-1.9-1.3-3.5-2.8-3.5c-1.9,0-3.6,1.5-3.6,3.3c0,0.3,0,0.5,0.1,0.8c-1.1,0-2.2,0-3.3,0.1
		c0.2-1.2,0.4-2.5,0.5-3.7c0-0.2,0-0.6-0.2-0.7c-2-1.5-4.1-3-6.1-4.4c-0.9-0.7-1.5-0.6-2.2,0.3c-0.3,0.4-0.6,0.9-0.9,1.3
		c-0.3-0.2-0.6-0.3-0.9-0.5c1.5-2.2,3.6-3.8,6.1-4.9c1.1-0.5,2.3-0.9,3.4-1.6c0.5-0.3,1-0.7,1.4-1.1c0,0,0,0.1,0.1,0.1
		c0.2,0.2,0.4,0.3,0.5,0.5C44.6,8,43.9,8.6,42.9,9c-0.5,0.2-0.3,0.5-0.1,0.9c0.7,1.1,1.3,2.2,2,3.3c0.1,0.1,0.2,0.3,0.3,0.4
		c0.5-1.2,0.5-1.2,1.6-0.6c1.7,0.9,3.5,1.7,5.2,2.6c0.1-0.1,0.1-0.1,0.2-0.2c-1-3.1-2.3-6-3.9-8.9c1.5,0,2.9-0.2,4.3-0.2
		c0.3,0.3,0.7,0.5,1.1,0.6c0.5,0.2,1.1,0.2,1.9,0.4c0.2-0.1,0.7-0.4,0.7-0.6C56,5.3,56,3.7,54.9,2.4c-0.5-0.6-1.1-1.4-2-1.2
		c-1.1,0.2-1.2,1.3-1.3,2.2c-0.1,0.7,0,1.4,0.3,1.9c-1.2,0.1-2.4,0.2-3.7,0.2c-0.2,0-0.3,0.1-0.4,0.2c-0.2-0.4-0.4-0.8-0.7-1.2
		c-0.2,0.3-0.4,0.5-0.5,0.7c-0.3,0.4-0.5,0.8-0.8,1.2c-0.1-0.2-0.3-0.3-0.4-0.5c-0.1,0-0.1-0.1-0.2-0.1c0.9-1.1,1.4-2.5,2-3.8
		c0.3-0.6,0.4-1.3,0.6-2c-1.6,0.1-4.1,2-4.6,3.2c0.7,0.3,1.9-0.6,2.2,0.8c0.1,0.4,0,1-0.8,1.4c0.4-1.1-0.1-1.3-0.9-1.3
		c-0.1,0-0.2,0-0.2,0c-5.6-0.9-11.2-1.3-16.9-1.3c-1.7,0-2,0.2-2.7,1.8c-1.1,2.6-1.5,5.3-1.8,8.1c-0.4,3.9-0.9,7.9-0.7,11.8
		c0,0.4-0.1,0.8-0.1,1.1c0,1.1,0,2.2,0,3.3c0.1,0.2,0.2,0.4,0.3,0.5c0.3,0.4,0.5,1,0.8,1.2c1.7,0.7,3.5,1.4,5.1,2
		c0.6-0.8,0.7-1.6,0.7-2.6c0.3,0,0.6,0,0.9,0c0,1.1-0.2,2.2-0.8,3.3c-0.1,0.2-0.1,0.4-0.1,0.6c0.2,0,0.4,0.2,0.6,0.1
		c0.8-0.2,1.4-0.7,1.6-1.5c0.2-0.8,0.4-1.7,0.6-2.5c0.3,0,0.7,0,1,0c-0.2,1.3-0.6,2.6-1.4,3.9c-1,1.7-2.8,1.5-3.8-0.1
		c-0.1-0.2-0.5-0.3-0.7-0.5c-0.1,0.2-0.4,0.5-0.4,0.7c0,1.5,0,3,0.3,4.4c0.3,2.2,0.4,2.2,2.5,2.7c0.2,0,0.4,0,0.6,0.1
		c1.2,0.2,1.2,0.2,1.6-1c1.1-3.5,1.7-7,2-10.1c0.3,0,0.6,0,0.8,0.1c-0.3,3-0.9,6-1.8,9c-0.2,0.5-0.2,1-0.4,1.6
		c1.4,0.2,2.9-0.3,3.2-1.6c0.2-1,0.5-1.9,0.8-2.8c0.6-1.9,0.9-3.9,1.1-5.8c0.3,0,0.6,0.1,0.9,0.1c-0.3,2.6-0.8,5.2-1.4,7.7
		c-0.3,1.3-0.4,2.9-2.3,3.5c0.5,0.5,1,0.9,1.5,1.4c-0.3,0.3-0.5,0.5-0.8,0.8c-0.5-0.5-0.9-1-1.4-1.5c-0.2-0.2-0.6-0.4-0.9-0.4
		c-1.1,0.1-2.2,0.3-3.4,0.5c0.1,0.2,0.3,0.5,0.5,0.8c1.1,1.4,2.2,2.7,3.2,4.2c0.5,0.7,0.8,1.5,0.9,2.3c0.2,1,0,2,0,3
		c0,1.7,0.1,1.8,1.6,2.2c1.7,0.5,1.7,0.5,1.7-1.3c0-0.7,0-1.5,0-2.2c0.4,0,0.7,0,1.1,0c0,0.6-0.1,1.2-0.1,1.7c0,0.1,0.4,0.4,0.5,0.4
		c0.8,0,1.6-0.1,2.4-0.2v0.6c-1.7,0.2-2.7,0.6-3,1.2c1-0.1,2-0.1,3-0.2v0.6c-0.8,0.1-1.5,0.2-2.3,0.3c0.7,0.3,1.3,0.6,2,0.8
		c-0.2,0.2-0.4,0.5-0.5,0.8c0,0,0,0,0,0.1c-0.4-0.1-0.8-0.2-1.2-0.4c-0.9-0.3-1.4-0.4-1.6-0.1c-0.5,0-0.9,0-1.4,0
		c-0.1-0.5-0.4-0.8-1-1c-1.1-0.3-2.3-0.5-3.4-0.7c-0.2,0-0.4,0-0.6,0.1c0,0.1,0,0.2-0.1,0.2c0.6,0.3,1.2,0.6,1.8,0.8
		c0.6,0.2,1.3,0.5,1.9,0.7c0,0.1,0,0.2-0.1,0.3c-0.4,0-0.8,0-1.2-0.1c-0.7-0.2-1.5-0.4-2.2-0.6c0,0,0,0,0,0c-0.5-0.2-1-0.3-1.6-0.3
		c0.1-0.5,0.2-1.1,0.2-1.7c-2.6-0.2-5.2-0.4-7.7-0.6c-0.2,0-0.4,0.4-0.6,0.6c0,1.1,0,2.2,0,3.3c0.3,0.2,0.5,0.5,0.8,0.7
		c2.3,2.2,4.6,4.3,6.8,6.5c1.4,1.5,2.8,3,4.1,4.6c-0.2,0.2-0.4,0.4-0.6,0.6c-3.1-3.9-6.6-7.4-10.4-10.7c-0.1-0.1-0.4-0.1-0.6-0.1
		c0,0.6,0,1.2,0,1.9c0,0.1,0.1,0.1,0.1,0.2c-0.2,2.9,1.3,5.4,1.8,8.1c0.3,1.5,0.5,3.1,0.6,4.7c-0.3,0-0.5,0-0.8,0
		c-0.1-2.4-0.5-4.8-1.5-7.1c-0.1,1-0.1,1.9-0.2,2.9c0,4.7,0,9.5,0,14.2c0.1,0.5,0.2,1,0.2,1.4c0.1,0,0.1,0,0.2,0
		c0.7-3.5,1.3-6.9,1.2-10.4c0.3,0,0.5,0,0.8,0c0.1,4.8-0.7,9.4-2.2,13.9c-0.1,0.2-0.2,0.3-0.3,0.4c0,0.9,0,1.8,0,2.7
		c0.7,0.7,1.3,1.3,2,2c0.4,0.4,0.9,0.8,1.5,1.3c1.5-2.2,2.9-4.4,4.4-6.7c-0.5-0.7-1-1.5-1.6-2.3c-0.4-0.6-0.5-1.1-0.1-1.6
		c0.2-0.3,0.4-0.8,0.6-1.1c0.1-0.2,0.5-0.2,0.7-0.2c0.1,0,0.3,0.4,0.2,0.6c-0.1,0.4-0.3,0.8-0.4,1.2c-0.1,0.3-0.2,0.8,0,1
		c1.1,2,2.2,3.9,3.4,5.9c0.9-0.6,1-1,0.5-1.9c-0.6-1.1-1.2-2.1-1.8-3.2c-0.1-0.3-0.2-0.8-0.1-0.9c0.5-0.5,0.2-1,0-1.4
		c-0.3-0.6-0.7-1.2-1-1.8c-0.5-0.9-0.3-1.7,0.6-2.2c0.2-0.1,0.6-0.1,0.7,0c0.1,0.1,0.2,0.6,0.1,0.7c-0.8,0.8-0.3,1.5,0.1,2.2
		c1,1.8,2,3.7,2.9,5.6c0.1,0.2,0.2,0.3,0.4,0.6c0.4-0.5,0.9-0.9,1.1-1.3c0.1-0.3,0-0.7-0.2-1c-0.6-1-1.3-2-1.9-3
		c-0.4-0.5-0.4-1-0.1-1.6c0.2-0.3,0.1-0.8,0-1c-0.4-0.8-1-1.6-1.5-2.4c-0.4-0.6,0.1-2,0.8-2.2c0.2-0.1,0.6,0,0.7,0.1
		c0.1,0.1,0.1,0.6,0,0.7c-0.7,0.7-0.4,1.2,0,1.9c1.3,2.2,2.5,4.4,3.7,6.6c0.8-0.4,1-0.9,0.5-1.9c-0.5-1-1.1-2.1-1.6-3.1
		c-0.1-0.2-0.2-0.5-0.1-0.6c0.6-1.1,1.4-2.2,2.5-3.1c1.9,3.6,3.7,7,5.4,10.4c-3,2.8-6,5.6-9,8.4c0,0,0.1,0.1,0.1,0.1
		c1.1-0.9,2.2-1.9,3.3-2.8c1.4-1.2,2.8-2.3,4.3-3.4c1.1-0.8,1.6-0.6,2,0.7c0.5,1.7,1.1,3.5,1.6,5.2c-0.7,0.1-1.3,0.4-2,0.6
		c-0.1-0.6-0.3-1.1-0.4-1.7c-1.3,0.4-1.4,0.5-1,1.7c0,0.2,0.1,0.3,0.1,0.5c-0.6,0.2-1.3,0.4-2,0.5c-0.1-0.2-0.2-0.5-0.2-0.7
		c-0.1,0-0.2,0-0.2,0.1c0,0.3,0,0.7-0.1,1c0,0.1,0,0.2,0,0.3c0,0.3,0,0.5,0,0.8c0.4,0,0.7,0,1.1,0c-0.1-0.2-0.1-0.3-0.2-0.5
		c0.7-0.1,1.3-0.3,1.9-0.5c0.1,0.3,0.2,0.6,0.3,1c0.4,0,0.8,0,1.2,0c-0.1-0.5-0.2-0.9-0.3-1.4c0.7-0.2,1.4-0.5,2.1-0.6
		c0.1,0.3,0.2,0.6,0.3,0.9c0.1,0.4,0.3,0.7,0.5,1.1c0.2,0,0.3,0,0.5,0c-0.2-0.7-0.4-1.5-0.7-2.2c0.2-0.2,0.1-0.6-0.2-0.8
		c0-0.1,0-0.1,0-0.2c-0.7-2.3-1.4-4.5-2.1-6.7c-0.2-0.6-0.1-1,0.6-1.1c0.6-0.2,1.2-0.4,1.8-0.5c2.8-0.4,5.5-0.9,8.3-1.2
		c1.8-0.2,3.7-0.2,5.5-0.4c0.7-0.1,1.1,0.2,1.2,0.9c0.1,0.6,0.2,1.1,0.4,1.6c0.1,0.2,0.2,0.3,0.3,0.4c0,0.3,0.1,0.6,0.5,0.6
		c0.1,0,0.2,0,0.3-0.1c0.1,0.1,0.3,0.2,0.4,0.2c1.3,0.4,2.5,0.7,3.8,1.2c1.8,0.6,3.5,1.2,5.3,1.8c0.6,0.2,1.2,0.2,1.7-0.3
		c0.7-0.6,1.5-1.1,2.2-1.7c0.5-0.4,0.9-0.8,1.4-1.3c0,0,0,0,0,0c0.7-0.5,1.5-0.8,2.4-0.6c0.4,0.1,0.8,0.2,1.2,0.2c0-0.2,0-0.4,0-0.6
		c-1.2-0.2-2.3-0.3-3.6-0.5c0,0.5,0,1,0,1.4c-1,0.7-2,1.4-3,2.1c-0.9,0.7-1.9,0.8-2.9,0.6c-0.6-0.2-1.3-0.5-1.9-0.7
		c-2.3-0.7-4.5-1.3-6.8-2c0.2-0.3,0-0.8-0.4-0.8c-0.2,0-0.3,0.1-0.4,0.2c-0.3-1.2-0.7-2.5-1-3.7c-6,0.8-11.9,1.3-18,2.1
		c-0.4-0.8-0.9-1.7-1.3-2.7c-1.4-3.3-3.1-6.4-5.4-9.1c-1-1.2-2.1-2.5-3-3.8c-0.3-0.4-0.6-0.8-0.9-1.1c0.2-0.1,0.4-0.3,0.5-0.5
		c0,0,0.1-0.1,0.1-0.1c1.4,1.7,2.8,3.5,4.1,5.3c0.2,0.3,0.4,0.5,0.6,0.8c0.4-0.9,0.8-1.7,1.2-2.5c0.1-0.1,0.1-0.2,0.1-0.3
		c0.7,0,1.3,0,2,0c0.4,0,0.8,0.1,1.2,0.2c-0.1,1.4,0.8,2.6,2.3,2.8c0.7,0.1,1.2-0.1,1.5-0.8c0.2-0.6,0.3-1.1,0.5-1.7
		c0.2-0.5,0.4-1.1-0.4-1.4c0.4-0.4,0.6-0.8,0.7-1.1h2.9c0.2,0.6,0.8,1,1.9,1.7c3.3,1.8,6.9,2.9,10.5,4c2.1,0.6,4.2,1.2,6.4,1.8
		c0.1-0.5,0.2-0.9,0.2-1.4c0-0.3,0-0.5,0-0.8c0.3,0,0.5,0.1,0.8,0.1c0,0.1,0,0.2,0,0.3c-0.1,1.4,0.2,2.7,0.9,4
		c0.4,0.6,0.7,1.3,1.1,2c0.2,0.3,0.5,0.5,0.8,0.8c0.2-0.3,0.5-0.6,0.7-0.9c0.1-0.2,0.1-0.5,0.1-0.8c0-1.1,0-2.1,0-3.2
		c0,0,0.1,0,0.1,0c0-0.6,0-1.3,0-1.9c0.3,0,0.6-0.1,0.9-0.2c0,0.5,0,1,0,1.5c0,0.3,0.1,0.7,0.6,0.5c1.1-0.4,2.2-0.8,3.3-1.3
		c0.6-0.3,0.9-0.8,0.9-1.5c0-1.1,0.1-2.1,0.1-3.2c-0.1-2.3-0.7-4.4-2.6-6c-0.7-0.6-1.5-1.1-2.3-1.4c0.2-1,0.6-2,0.8-3.1
		C76.7,63.5,77.9,64,78.9,64.8z M36.7,29.7c0.1-1.6,0.2-3.2,0.2-4.8c0-1.4-0.3-2.8-1-4.1c-0.2-0.3-0.5-0.7-0.8-0.8
		c-0.8-0.2-1.6-0.2-2.4-0.3c0.1,0.4,0.2,0.7,0.2,1c0.7,2.5,1.2,5,1,7.5c0,0.4-0.1,0.8-0.1,1.2c-0.3,0-0.5,0-0.8-0.1
		c0-0.4,0.1-0.9,0.1-1.3c0.1-3.2-0.3-5.7-1-7.5c-0.3-0.8-0.8-1-1.5-0.8c-1.6,0.4-2.9,1.3-3.9,2.7c-0.6,0.8-1.3,1.6-1.1,2.8
		c0.1,0.5,0,1,0.6,1.1c0.6,0.1,1.1,0.2,1.6-0.4c0.4-0.5,1-0.9,1.6-1.2c1.1-0.5,2-0.1,2.4,1c0.4,1.2,0.6,2.4,0.5,3.6
		c-0.3,0-0.6,0-0.9,0c0.1-0.3,0.1-0.6,0.2-0.8c-0.2-0.9-0.3-1.6-0.6-2.2c-0.2-0.6-0.7-0.9-1.4-0.7c-0.7,0.2-1.1,0.6-1,1.4
		c0,0.4,0.1,0.8,0.2,1.1c0.1,0.4,0.2,0.8,0.3,1.1c-0.3,0-0.6,0-0.9,0c0,0,0-0.1,0-0.1c-0.2-1.4-0.8-2.3-2.3-2.3
		c-0.9,0-0.9-0.4-1-1.2c-0.1-5.7,0.8-11.4,1.3-17.1c0.2-2.1,1.2-2.9,3.3-2.9c3.5-0.1,6.9,0.5,10.3,1.3c1.4,0.3,2.7,0.5,3.9-0.5
		c0.1-0.1,0.3-0.1,0.5-0.2c0,0.1,0.1,0.1,0.1,0.2C44,6.6,43.9,6.8,43.7,7c-1.2,0.8-2.6,1.1-4.1,0.9c-0.7-0.1-1.4-0.5-2.1,0.2
		c-0.7,0.6-1.4,1.2-2.2,1.7c-2.2,1.4-4.4,2.7-5.4,5.3c-0.5,1.3-1,2.5-0.9,3.9c2.2,0,2.3-0.1,3.2-1.9c0.1-0.2,0.2-0.4,0.3-0.6
		c0.2-0.5,0.5-1,0.7-1.4c0.3,0.2,0.6,0.3,0.9,0.5c-0.4,0.6-0.7,1.2-1.1,1.7c-0.8,1.4-0.6,1.6,1,1.6c1.8,0,2.8,0.7,3.3,2.4
		c0.3,0.9,0.4,1.8,0.4,2.8c0.1,1.9,0.1,3.8-0.1,5.7C37.3,29.7,37,29.7,36.7,29.7z M74.7,67.3c0.2,0.1,0.3,0.4,0.5,0.8
		c-2.5-0.5-4.8-0.9-7.1-1.3C68.1,66.9,68,67,68,67.1c0.3,0.3,0.5,0.8,0.8,0.9c2.2,0.5,4.3,0.8,6.5,1.2c0.2,0,0.5,0,0.5-0.1
		c0.3-0.5,0.5-0.2,0.7,0.1c1.2,1.8,0.8,2.5-0.9,3.2c-0.2,0.1-0.4,0.1-0.6,0.2c-1.2,0.2-2.4,0.4-3.6,0.7c0.2,0,0.4,0.1,0.6,0.1
		c1.8,0.6,2.6,1.4,2.7,3.1c-0.3,0.1-0.6,0.2-0.9,0.3c0-1.6-0.6-2.2-2.2-2.5c-0.7-0.1-1,0.2-1.1,0.8c-0.1,0.5-0.1,1.1-0.2,1.6
		c-0.3,0-0.6-0.1-0.8-0.1c0-0.6,0.1-1.3,0.2-1.9c0.1-0.5,0.4-1,0.6-1.4c0.1,0-0.1,0-0.2,0c-4.1-0.2-8-1.2-11.8-2.7
		c-1.4-0.5-2.6-1.2-3.6-2.3c-0.3-0.4-0.5-0.7-0.6-1.1c0.3,0,0.7,0,1,0c0.1,0.2,0.2,0.3,0.5,0.5c1,0.8,2.1,1.6,3.3,2.1
		c2.9,1.2,5.9,1.9,8.9,2.4c2.2,0.4,4.3,0.4,6.4-0.1c0.7-0.2,1.5-0.4,1.9-1.3c-0.3-0.2-0.6-0.4-0.9-0.5c-2-0.4-4-0.9-6-1.2
		c-1.4-0.2-1.9-0.6-1.9-1.9c0-0.5,0.2-0.8,0.7-0.8c0.7,0.1,1.5,0.2,2.2,0.3c0.9,0.2,1.8,0.4,2.6,0.6c-0.1-0.2-0.1-0.2-0.2-0.3
		c-0.1-0.1-0.3-0.1-0.4-0.2c-3.8-1.4-7.7-2.2-11.7-1.9c-1.5,0.1-3,0.4-4.5,0.8c-0.4,0.1-0.7,0.3-0.9,0.5c-0.3,0-0.6,0-1,0
		c0.2-0.5,0.5-0.9,1.2-1.1c1.2-0.5,2.4-0.7,3.7-0.8c4.7-0.4,9.2,0.2,13.6,2.1C73.3,66.3,74,66.9,74.7,67.3z"/>
	<path d="M67.3,47c0.4-0.5,1.2,0,0.9,0.5c-0.4,0.5-0.9,0.8-1.4,1c0.1,0.1,0.3,0.1,0.5,0c1.4-0.6,2.9-1.3,3.5-2.8
		c0.7-1.8,1.3-3.8,1.7-5.7c0.3-1.1,0.4-2.3,0.6-3.4c0,0-0.1,0-0.1,0c-0.6,0-0.6-1,0-1c0.1,0,0.2,0,0.2,0c0.1-0.4,0.1-0.8,0.2-1.2
		c0.5-2.3,1-4.6,0.6-6.9c-0.1-0.5-0.2-1.1-0.5-1.3c-0.1-0.1-0.2-0.1-0.3-0.2c0-0.1,0.1-0.2,0.1-0.3c0-0.3,0-0.6,0-0.9
		c0.1,0,0.1,0.1,0.2,0.1c0.1-0.1,0.1-0.2,0.1-0.3c0.1-2.4,0.2-4.8,0.4-7.2c0.1-1.6-0.6-2.7-1.9-3.5c-1-0.6-2-1.3-3.1-1.8
		c-2.4-1.3-4.9-2.7-7.3-4C61.4,8,61.2,8,60.8,7.9c0.6,0.8,1.2,1.5,1.7,2.2h-0.8c-0.2,0-0.3,0.1-0.4,0.3c-0.8-1-1.6-1.8-1.9-2
		c0.2,0.4,0.4,0.7,0.6,1c1.3,2.2,2.8,4.4,3.5,6.9c0.5,1.6,0.9,1.7,2.6,0.9c-0.3-0.9-2.4-3.9-4.2-6.1h1.4c0.1,0.2,0.2,0.3,0.4,0.5
		c0.1,0.1,0.3,0.2,0.5,0.3c1.1,0.5,2.2,0.9,3.3,1.4c1.2,0.5,2.3,1.1,3.4,1.6c0.5,0.2,0.7,0.6,0.7,1.2c0,2.2,0.1,4.3,0,6.5
		c0,0.8,0.1,1.5,0.7,1.7c0,0.4,0,0.7,0,1.1c-0.3-0.1-0.6-0.2-1-0.4c0,0.1-0.1,0.1-0.1,0.2c0,0.1,0.1,0.3,0.1,0.4
		c-0.5-0.2-0.9-0.3-1.4-0.4c0,0,0,0,0,0c-0.4-1.1-0.7-2.1-1.2-3.2c-0.2-0.5-0.7-1-1.4-0.8c-0.7,0.2-1,0.8-1,1.5
		c0,1.4,0.5,2.7,1.5,3.7c0.3,0.3,0.9,0.6,1.2,0.4c0.2-0.1,0.4-0.4,0.5-0.7c0,0,0,0,0,0c0.7,0.1,1.3,0.3,2,0.6c0,0.1,0,0.1,0,0.2
		c0.2,0.8,0.3,1.6-0.4,2.2c-1.4,1.3-1.8,3-1.9,4.8c-0.1,1.3-0.3,2.6-0.5,3.9c-0.1-0.1-0.3-0.2-0.4-0.3c-0.1-0.1-0.2-0.1-0.3-0.1
		c0.3-1.8,0.5-3.4,0.3-3.8c-1,3.1-1.6,6.1-1.7,9.3c0.4-0.7,0.9-2.6,1.2-4.5c0.2,0.1,0.5,0.3,0.8,0.4c-0.4,2.1-0.9,4.3-1.6,6.3
		c-0.3,0.7-0.4,1.5-0.5,2.3C66.7,47.5,67.1,47.3,67.3,47z"/>
	<path d="M74.1,36.6c-0.1,0-0.2,0-0.3-0.1c-0.1,0.6-0.2,1.2-0.3,1.8c0.7,0,1.2-0.2,1.3-0.8c0.1-1.2,0.9-2.6-0.6-3.9
		c-0.1,0.7-0.2,1.3-0.3,1.9c0.1,0,0.3,0,0.4,0.1C75,35.8,74.7,36.8,74.1,36.6z"/>
	<path fill="#030303" d="M64.3,49.3c0.2,0,0.4,0,0.6,0c0.1,0,0.3,0,0.4-0.1c0.4-0.1,0.7-0.4,1-0.6c0.1-0.1,0.2-0.1,0.4-0.2
		c0.5-0.2,1.1-0.5,1.4-1c0.4-0.5-0.5-1-0.9-0.5c-0.2,0.3-0.6,0.5-0.9,0.6c-0.1,0.1-0.3,0.1-0.4,0.2c-0.2,0.1-0.4,0.2-0.6,0.3
		c-0.3,0.2-0.5,0.2-0.8,0.2c-0.1,0-0.2,0-0.3,0C63.6,48.3,63.6,49.3,64.3,49.3z"/>
	<path fill="#030303" d="M53.4,45.1c-0.1,0.1-0.2,0.2-0.2,0.4v0.4v0.8c0,0.6,1,0.6,1,0V46v-0.5c0-0.1,0-0.1,0-0.2
		C54.1,45,53.7,44.9,53.4,45.1z"/>
	<path fill="#030303" d="M72.9,36.5C72.9,36.5,73,36.5,72.9,36.5c0.3,0,0.6,0,0.9,0c0.1,0,0.2,0,0.3,0.1c0.6,0.2,0.9-0.8,0.3-1
		c-0.1,0-0.3-0.1-0.4-0.1c-0.3,0-0.5,0-0.8,0c-0.1,0-0.2,0-0.2,0C72.3,35.5,72.3,36.5,72.9,36.5z"/>
</g>
</svg>
