<?xml version="1.0" encoding="utf-8"?>
<!-- Generator: Adobe Illustrator 17.1.0, SVG Export Plug-In . SVG Version: 6.00 Build 0)  -->
<!DOCTYPE svg PUBLIC "-//W3C//DTD SVG 1.1//EN" "http://www.w3.org/Graphics/SVG/1.1/DTD/svg11.dtd">
<svg version="1.1" id="Layer_1" xmlns="http://www.w3.org/2000/svg" xmlns:xlink="http://www.w3.org/1999/xlink" x="0px" y="0px"
	 viewBox="0 0 100 100" enable-background="new 0 0 100 100" xml:space="preserve">
<g>
	<path fill="none" d="M75.4,49.8c1-0.5,1.7-1.4,1.8-2.6c0-0.3,0-0.6-0.2-0.9c-0.2-0.4-0.4-0.9-0.7-1c-0.3-0.1-0.9,0.2-1.1,0.5
		c-0.8,0.9-1.2,2-1.2,3.1C74,49.9,74.6,50.3,75.4,49.8z"/>
	<path fill="none" d="M73.5,34.1c0.1,0.4,0.2,0.8,0.8,0.6c-0.6-1.8-1.1-3.6-1.7-5.4C72.9,30.9,73.2,32.5,73.5,34.1z"/>
	<path fill="none" d="M70.4,37.1c0.1,0.4,0.4,0.7,0.6,1.1c0.1-0.1,0.2-0.1,0.3-0.2c-0.5-1.9-1.1-3.7-1.6-5.6
		C69.8,34,70,35.6,70.4,37.1z"/>
	<path fill="none" d="M66.7,38c0.2,1.5,0.2,1.5-1.3,2l-0.1,0.1c0.2,0.3,0.2,0.9,0.5,1c0.9,0.4,1.9,0.6,3,1c-0.9-3.2-1.7-6.2-2.6-9.2
		C66.3,34.6,66.5,36.3,66.7,38z"/>
	<path fill="none" d="M76.5,60.5c-1,1-1.5,2.2-1.4,3.6c0.1,0.8,0.7,1.1,1.4,0.7c1.1-0.6,1.6-1.6,1.7-2.8c-0.1-0.4-0.2-0.9-0.4-1.3
		C77.6,60.1,77,60,76.5,60.5z"/>
	<path fill="none" d="M57.5,47.4c0.9-0.3,1.1-0.9,1-1.5c0-0.7-0.3-1.3-1-1.5c-0.4-0.1-0.9,0.1-1.4,0.2l0,0.2
		C57.6,45.1,58.1,45.9,57.5,47.4z"/>
	<path fill="none" d="M62,65.8c-1.5,0.3-2.6,2.2-2.4,3.7c0.2,1,0.8,1.6,1.8,1.6c2.2,0,3.6-2.2,2.7-4.3C63.7,65.9,63,65.6,62,65.8z"
		/>
	<path fill="none" d="M65.7,37.8l0.2,0c-0.1-1.1-0.3-2.2-0.4-3.3C65.5,35.6,65.2,36.8,65.7,37.8z"/>
	<path fill="none" d="M75.3,59.8c0.3,0.2,0.9,0.1,1.3-0.1c1-0.6,1.4-1.6,1.4-2.9c0,0,0-0.1,0-0.3c-0.1-0.5-0.1-1.1-0.7-1.3
		c-0.7-0.2-1.2,0.2-1.4,0.8c-0.4,0.9-0.7,1.9-0.9,2.8C74.7,59.1,75,59.7,75.3,59.8z"/>
	<path fill="none" d="M61.8,72.9c-1.6,0-3,1.8-2.9,3.5c0.1,1.3,0.9,1.9,2.2,1.8c1.4-0.2,2.7-1.9,2.6-3.5
		C63.8,73.7,63,72.9,61.8,72.9z"/>
	<path fill="none" d="M42.9,40c0.3,0.8-0.1,1.2-0.8,1.7c1,0,1.4-0.3,1.5-1.1c0.1-0.8-0.3-1.7-1-1.9c-0.6-0.2-1,0-1.3,0.6
		C42.1,39.1,42.6,39.4,42.9,40z"/>
	<path fill="none" d="M71.1,60.9c-0.7-0.3-1.3,0-1.7,0.6c-0.6,0.7-1,1.5-0.9,2.5c0,0.2,0,0.3,0,0.5c0.1,1.2,0.6,1.5,1.7,1.1
		c1.4-0.4,2.2-1.6,2.1-3C72.3,61.8,71.8,61.2,71.1,60.9z"/>
	<path fill="none" d="M71.4,67.1c-0.4-0.2-1.2,0.1-1.7,0.4c-1.1,0.7-1.6,2.7-1,3.9c0.1,0.3,0.5,0.5,0.8,0.6c1.5,0.1,2.7-1.3,2.9-3.2
		C72.1,68.1,71.9,67.3,71.4,67.1z"/>
	<path fill="none" d="M69.7,54c1,0.1,1.9-0.7,2.4-1.8c0.4-0.9,0.1-2.2-0.6-2.7c-0.5-0.4-1.1-0.5-1.6,0C69,50.1,68.5,51,68.4,52
		C68.4,53.5,68.7,53.9,69.7,54z"/>
	<path fill="none" d="M62.9,57.4c1.5-0.2,2.7-1.5,2.7-3.1c0-1.6-1.3-2.6-2.6-2.1c-1.4,0.5-2.4,2.3-2.1,3.8
		C61.2,57,61.9,57.5,62.9,57.4z"/>
	<path fill="none" d="M69.5,59.5c1.6-0.2,2.5-1.4,2.5-3.1c0-1.2-0.7-1.9-1.6-1.6c-1.5,0.5-2.4,2.4-2,3.9
		C68.6,59.4,68.9,59.6,69.5,59.5z"/>
	<path fill="none" d="M62.7,43.2c-0.1,0-0.2-0.1-0.3-0.1c-0.2,0.3-0.7,0.5-0.7,0.8c-0.3,1.9-0.6,3.8-0.8,5.7
		c1.5-0.5,2.2-1.3,1.9-2.8C62.6,45.6,62.7,44.4,62.7,43.2z"/>
	<path fill="none" d="M60.3,62.5c0.2,1.2,1.1,1.8,2.3,1.5c1.6-0.4,2.3-1.3,2.3-3.1c0-0.2,0-0.4,0-0.6c-0.1-1.2-0.8-1.7-2-1.5
		C61.3,59,60,61,60.3,62.5z"/>
	<path fill="none" d="M11.8,48.2c-0.4,1.5,0,3,0.8,4.3c0.6,1,1.5,1.5,2.2,1.3c0.7-0.2,1.2-1.1,1.2-2.3c0-1.6-0.6-3.1-1.6-4
		C13.2,46.4,12.1,46.7,11.8,48.2z"/>
	<path fill="#646464" d="M72.4,25.5c0.9,3,1.9,6.1,2.9,9.1c0.1,0.2,0.1,0.5,0.1,0.7c-0.1,0-0.2,0-0.3,0.1c-1-3.3-2.1-6.6-3.1-10.1
		c-0.7,0.8-1.3,1.6-2,2.2c-0.4,0.4-0.4,0.7-0.2,1.1c1,3.3,2,6.6,2.9,9.9c0.1,0.2,0.1,0.5,0.2,0.7c-0.1,0-0.2,0.1-0.3,0.1
		c-1.2-3.7-2.1-7.4-3.3-11.3c-2.2,1.6-4.6,2.1-7,2.7c-0.5,0.1-0.5,0.4-0.4,0.8c0.2,1.6,0.4,3.2,0.6,4.8c0.1,1.3,0.3,2.7,0.5,4.2
		c-0.7-0.8-1.2-1.4-1.7-2c0,0.9,0,1.6,0,2.3c-1.4,0-2.8,0-4.3,0c0-3.3,0-6.5,0-9.8c1.3,0,2.6,0,3.9,0l0-0.2
		c-2.2-0.1-4.4-0.3-6.4-0.4c0.5,0.2,1.1,0.5,1.8,0.7c-0.6,3.2-1.2,6.2-1.7,9.4c-2.7-1-5.3-2-8-3c-0.5,2.6-0.9,5.1-1.4,7.8
		c0.3-0.2,0.5-0.3,0.6-0.3c0.2-0.1,0.5-0.2,0.6-0.1c1.5,1.2,3.3,1.9,5.3,2.5c-2.2,1.3-4.2,2.5-6.3,3.8c-0.1-0.4-0.1-0.8-0.3-1
		c-0.3-0.4-0.6-0.9-1-1c-0.9-0.4-2.1,0.5-2.5,1.6c-0.4,1.2,0,2.5,1,3c0.4-0.4,0.8-0.9,1.3-1.4c0.7,0.4,1.3,0,1.9-0.4
		c3-1.8,5.9-3.6,8.9-5.3c0.5-0.3,1.2-0.5,1.8-0.7c0.1,0,0.3,0.2,0.6,0.3c-0.3,0.2-0.6,0.4-0.8,0.5c-3.4,2.1-6.9,4.1-10.3,6.2
		c-0.3,0.2-0.5,0.5-0.6,0.8c-0.2,0.3-0.3,0.6-0.5,0.9c-0.1,0.1-0.1,0.2-0.1,0.3c0.1,0,0.3,0.1,0.4,0.1c0.2-0.1,0.3-0.2,0.5-0.3
		c3.5-2.1,6.9-4.2,10.4-6.2c0.3-0.2,0.7-0.2,1-0.1c1,0.3,1.9,0,2.4-0.9c0.6-1.2,0.4-2.9-0.7-3.7c-1.1-1-2.5-0.7-3,0.6
		c-0.3,0.8-0.8,1.2-1.4,1.5c-0.3,0.2-0.6,0.3-0.9,0.5c-0.5,0.4-0.9,0.4-1.5,0.2c-1.5-0.6-3-1.1-4.6-1.7c-0.3-0.1-0.5-0.2-0.8-0.3
		c0.5-1.2,1-2.4,1.5-3.6c2.2,0.8,4.3,1.6,6.4,2.4c0.2-0.9,0.3-1.8,0.5-2.7c2.1,0.8,4.1,1.5,6.2,2.3c0.2,0.1,0.3,0.4,0.3,0.7
		c-0.1,0.8-0.2,1.5-0.3,2.3c-0.2,1.7-0.5,3.4-0.7,5c-0.6,0-1.2,0-1.8,0c-1.2,11-2.4,21.9-3.6,32.9c-0.3,0-0.5,0-0.8,0
		c-3.7,0-7.5,0-11.2,0c-0.6,0-0.9-0.2-1.2-0.6c-2.1-3.2-4.3-6.3-6.4-9.5c-0.2-0.3-0.3-0.7-0.4-1.1c-0.2-2-0.3-4-0.5-6
		c0-0.2-0.1-0.3-0.2-0.7c-0.7,2.1-1.4,4-2,5.9c-0.1,0.2,0.1,0.6,0.2,0.8c2.4,5.2,4.9,10.5,7.3,15.7c0.3,0.5,0.5,0.7,1.1,0.6
		c6-0.9,12.1-1.8,18.1-2.8c0.3-0.1,0.7-0.2,0.9-0.4c3.6-2.5,7.2-5,10.7-7.5c0.3-0.2,0.6-0.5,0.8-0.8c3.1-4.3,6.1-8.7,9.2-13
		c0.4-0.6,0.5-1.1,0.1-1.8c-1.1-2.4-2.7-4.7-2.6-7.6c0-0.4-0.1-0.9-0.1-1.4c0-0.4-0.1-0.8-0.1-1.3c-0.2,1.2-0.9,1.9-1.8,2.4
		c-0.7,0.4-1.5,0.1-1.5-0.7c-0.2-1.5,0.3-2.7,1.4-3.8c0.5-0.5,1.2-0.3,1.6,0.3c0.1,0.2,0.2,0.4,0.4,0.8c-0.3-3.5-0.5-6.8-0.8-10.1
		c-2.3,5.9-10.7,9.2-16.2,9.3c1-0.6,1.9-1.3,2.9-1.7c1.6-0.7,2.4-1.8,2-3.6c-0.1-0.3,0-0.6,0-0.9c-0.1-0.5,0.1-0.7,0.6-0.9
		c2.1-0.8,4.1-1.8,5.8-3.3c1.8-1.5,3.2-3.2,3.7-5.5c0.1-0.5,0-1.1-0.1-1.5c-0.2-0.5-0.6-0.8-0.8-1.3c-0.4-1.1-0.8-2.3-1.1-3.5
		c-0.2-0.7-0.4-1.3-0.6-2c-0.2-0.8-0.4-1.7-0.6-2.5c-0.1,0-0.2,0-0.3,0C72.3,24.5,72.2,25,72.4,25.5z M57.5,44.4
		c0.7,0.2,0.9,0.8,1,1.5c0,0.7-0.2,1.3-1,1.5c0.6-1.5,0.2-2.4-1.3-2.6l0-0.2C56.6,44.5,57.1,44.3,57.5,44.4z M78.2,62.1
		c-0.1,1.2-0.6,2.2-1.7,2.8c-0.7,0.4-1.4,0.1-1.4-0.7c-0.1-1.4,0.4-2.6,1.4-3.6c0.5-0.5,1.1-0.4,1.4,0.2
		C78.1,61.2,78.1,61.6,78.2,62.1z M75.7,55.9c0.2-0.6,0.8-0.9,1.4-0.8c0.6,0.2,0.7,0.8,0.7,1.3c0,0.2,0,0.3,0,0.3
		c0,1.3-0.3,2.3-1.4,2.9c-0.3,0.2-0.9,0.3-1.3,0.1c-0.3-0.1-0.6-0.7-0.5-1C75,57.8,75.3,56.8,75.7,55.9z M61.2,78.3
		c-1.3,0.1-2.1-0.5-2.2-1.8c-0.2-1.7,1.3-3.5,2.9-3.5c1.2,0,1.9,0.7,2,1.9C63.9,76.4,62.6,78.1,61.2,78.3z M61.5,71.1
		c-1,0-1.6-0.5-1.8-1.6c-0.3-1.6,0.9-3.4,2.4-3.7c0.9-0.2,1.7,0.1,2.1,1C65.1,68.9,63.7,71.1,61.5,71.1z M75.2,45.8
		c0.3-0.3,0.8-0.5,1.1-0.5c0.3,0.1,0.5,0.6,0.7,1c0.1,0.3,0.1,0.6,0.2,0.9c-0.1,1.2-0.7,2.1-1.8,2.6c-0.8,0.4-1.4,0-1.4-0.9
		C74,47.8,74.4,46.7,75.2,45.8z M69.5,71.9c-0.3,0-0.7-0.3-0.8-0.6c-0.6-1.2-0.1-3.1,1-3.9c0.5-0.3,1.3-0.6,1.7-0.4
		c0.5,0.2,0.6,1.1,0.9,1.6C72.2,70.6,71,72,69.5,71.9z M70.2,65.6c-1.1,0.4-1.6,0.1-1.7-1.1c0-0.2,0-0.3,0-0.5c0-1,0.3-1.8,0.9-2.5
		c0.5-0.6,1-0.9,1.7-0.6c0.7,0.3,1.2,0.8,1.2,1.7C72.3,64,71.5,65.2,70.2,65.6z M69.9,49.3c0.5-0.4,1.1-0.4,1.6,0
		c0.7,0.6,0.9,1.8,0.6,2.7c-0.4,1.1-1.4,1.9-2.4,1.8c-1-0.1-1.3-0.5-1.3-2C68.5,51,69,50.1,69.9,49.3z M70.5,54.9
		c0.9-0.3,1.6,0.4,1.6,1.6c0,1.7-1,2.8-2.5,3.1c-0.6,0.1-0.9-0.1-1.1-0.7C68.1,57.3,69,55.4,70.5,54.9z M63,52.2
		c1.4-0.5,2.6,0.5,2.6,2.1c0,1.5-1.2,2.9-2.7,3.1c-1,0.1-1.8-0.4-2-1.4C60.6,54.5,61.6,52.7,63,52.2z M62.8,58.8
		c1.2-0.2,1.8,0.3,2,1.5c0,0.2,0,0.5,0,0.6c0,1.8-0.7,2.7-2.3,3.1c-1.2,0.3-2.1-0.2-2.3-1.5C60,61,61.3,59,62.8,58.8z M60.8,49.6
		c0.3-1.9,0.5-3.8,0.8-5.7c0.1-0.3,0.5-0.6,0.7-0.8c0.1,0,0.2,0.1,0.3,0.1c0,1.2-0.1,2.4,0,3.6C63,48.3,62.3,49.1,60.8,49.6z
		 M65.5,34.5c0.1,1.1,0.3,2.2,0.4,3.3l-0.2,0C65.2,36.8,65.5,35.6,65.5,34.5z M65.8,41.1c-0.3-0.1-0.3-0.7-0.5-1l0.1-0.1
		c1.5-0.4,1.4-0.4,1.3-2c-0.2-1.7-0.4-3.4-0.4-5.1c0.8,3,1.7,6,2.6,9.2C67.7,41.8,66.7,41.5,65.8,41.1z M71,38.2
		c-0.2-0.4-0.5-0.7-0.6-1.1c-0.3-1.5-0.5-3.1-0.7-4.7c0.5,1.9,1.1,3.7,1.6,5.6C71.2,38.1,71.1,38.1,71,38.2z M73.5,34.1
		c-0.3-1.6-0.6-3.2-0.8-4.8c0.6,1.8,1.1,3.6,1.7,5.4C73.7,34.9,73.6,34.6,73.5,34.1z"/>
	<path fill="#646464" d="M45.1,22.6c0.2,0.4,0.2,0.9,0.5,1.2c0.4,0.5,1,0.9,1.5,1.3c0.8,0.7,1.6,1.7,2.5,2.2c2.5,1.3,5,2.3,7.9,1.8
		c1.1-0.2,2.4,0.3,3.6,0.2c2.6-0.2,5-0.9,7.3-2.3c0.2-0.1,0.4-0.2,0.5-0.4c0.6-0.6,1.2-1.4,1.9-1.9c1.6-1.2,1.6-2.6,0.6-3.7
		c-0.1,0.2-0.2,0.4-0.4,0.6c-0.7,0.9-1.3,1.9-2.3,2.6c-3,2-6.3,2.9-9.8,2.9c-3.7,0-7.1-0.7-10.2-2.9c-0.9-0.7-1.6-1.6-2.4-2.4
		c-0.1-0.1-0.1-0.4-0.1-0.6c0.2,0,0.5-0.1,0.7,0c0.1,0,0.2,0.2,0.3,0.3c0.7,0.6,1.2,1.5,2,1.9c1.7,0.8,3.5,1.5,5.4,2.1
		c1,0.3,2,0.3,3.1,0.1c1.1-0.2,2.4,0.3,3.5,0.2c2.4-0.2,4.7-1,6.8-2.3c0.2-0.1,0.3-0.3,0.5-0.4c0.6-0.6,1.2-1.3,1.9-1.9
		c1.2-1,1.6-2.7,0.4-3.8c-0.7,1.2-1.2,2.4-2.4,3.3c-2.9,2.1-6,3-9.5,3c-3.7,0-7-0.8-10-3.1c-0.4-0.3-0.7-0.5-1.1-0.8
		c0.4-0.3,0.6-0.6,0.9-0.8c0.4,0.4,0.7,0.9,1.1,1.1c1.2,0.6,2.4,1.3,3.7,1.7c1.3,0.4,2.6,0.8,4.1,0.4c1-0.2,2.2,0.3,3.3,0.2
		c2.4-0.2,4.7-1,6.7-2.3c0.2-0.1,0.3-0.3,0.5-0.4c0.6-0.6,1.1-1.4,1.8-1.9c1-0.8,1.4-2.3,0.5-3.5c-0.1,0.3-0.2,0.5-0.4,0.7
		c-0.6,0.8-1.2,1.6-1.9,2.2c-3.3,2.6-7.1,3.2-11.2,2.9c-2.4-0.2-4.8-0.9-6.9-2.3c0.7-0.6,1.3-1.3,2-1.8c0.1-0.1,0.5-0.1,0.7,0
		c1.3,0.5,2.6,0.9,3.8,1.4c0.3,0.1,0.7,0.2,1.1,0.4c-0.7-1.7-1.3-3.2-1.9-4.7c-0.2-0.4-0.5-0.7-0.9-0.9c-1.4-0.6-2.8-1.1-4.3-1.6
		c1.1-1.2,2.2-2.3,3.2-3.3c0.2-0.2,0.6-0.3,0.8-0.2c1.5,0.5,2.9,1,4.4,1.6c0.2,0.1,0.4,0.4,0.4,0.7c0,0.8-0.1,1.7-0.1,2.5
		c0,1.7,0,3.5,0,5.2c2.1,0.1,4.8-0.6,6.7-1.5c1.5-0.8,2.8-1.7,3.7-3.1c0.6-0.9,0.2-2.8-0.8-3.4c0,0.1-0.1,0.2-0.1,0.3
		c-0.4,1-1.1,1.5-2.2,1.5c-1.1-0.1-1.9-0.6-2.3-1.7c-0.4-1-0.1-1.9,0.7-2.6c0.4-0.3,0.7-0.6,1.2-1C61.8,2.5,57.5,2,52.9,4.1
		c-0.7-1-1.4-2-2.1-3c-0.3-0.5-0.7-0.6-1.2-0.4C49,1,48.4,1.4,47.8,1.9c-0.4,0.3-0.4,0.7-0.1,1.2c0.6,1,1.1,2,1.6,3
		c0.2,0.4,0.1,0.6-0.1,1c-0.8,1.3-1.6,2.7-2.3,4.1c-0.1,0.2-0.2,0.6,0,0.8c0.6,0.8,1.3,1.5,2,2.4c0.5-1,0.8-1.7,1.2-2.5
		c0.1,0.9,0,1.7,0,2.5c0,0.4,0.2,0.8,0.3,1.4c-0.4,0.4-1,0.9-1.6,1.5c-0.4-0.5-0.8-0.8-1.1-1.3c-0.4-0.4-0.7-0.9-1-1.3
		c-0.8,1.5-0.5,2.5,1.1,3.6c-0.2,0.2-0.4,0.4-0.6,0.6c-0.3-0.5-0.5-0.9-0.7-1.2l-0.2,0c-0.2,0.7-0.3,1.4-0.5,2.1
		c-0.1,0.3-0.1,0.6-0.3,0.8c-0.5,0.6-1.1,1.1-1.6,1.5c0.3,0.4,0.5,0.7,0.8,1C44.8,22.8,45,22.7,45.1,22.6z"/>
	<path fill="#646464" d="M82.7,65.3c-0.2,0.3-0.3,0.4-0.4,0.6c-2.8,4.7-5.7,9.3-8.5,14c-0.2,0.4-0.6,0.8-1,1c-4,2.8-8,5.5-12.1,8.2
		c-0.3,0.2-0.7,0.4-1.1,0.5c-5.7,1.2-11.4,2.4-17.1,3.5c-1.6,0.3-3.1,0.6-4.7,0.9c-2.5-6.6-4.9-13.1-7.3-19.6c-0.1,0-0.2,0-0.3,0.1
		c0.1,1.5,0.1,3,0.5,4.4c1.3,4,2.8,7.9,4.2,11.8c1,2.9,2.1,5.7,3.1,8.6c0.2,0,0.2,0,0.3,0c6.9-1.6,13.8-3.2,20.7-4.8
		c0.5-0.1,1-0.3,1.4-0.6c4-3.2,8.1-6.5,12.1-9.8c0.4-0.3,0.7-0.7,0.9-1.1c3-4.8,5.9-9.7,8.9-14.5C82.9,67.5,82.8,66.5,82.7,65.3z"/>
	<path fill="#646464" d="M40.2,42.3c0.4-0.2,0.7-0.2,1.2,0.1c1,0.8,2.3,0.5,2.9-0.7c0.6-1.1,0.4-2.2-0.3-3.3
		c-0.5-0.7-1.2-1.1-2.1-0.9c-0.8,0.2-1.3,0.8-1.5,1.6c-0.1,0.5-0.4,0.7-0.8,0.8c-4.1,1.4-8.3,2.9-12.4,4.3c-0.4,0.1-0.8,0.3-1.3,0.5
		c1,0.7,1.1,1,0.7,2.2C31.2,45.5,35.7,43.9,40.2,42.3z M42.6,38.7c0.7,0.2,1.1,1.1,1,1.9c-0.1,0.8-0.5,1.1-1.5,1.1
		c0.7-0.5,1.1-1,0.8-1.7c-0.3-0.7-0.8-0.9-1.6-0.7C41.6,38.7,42.1,38.6,42.6,38.7z"/>
	<path fill="#646464" d="M17.7,46.4c-1.4-0.6-2.8-0.7-4.2-0.3c-1.7,0.5-2.3,1.3-2.3,2.6c0,2,0.5,3.4,1.5,4.7c0.5,0.7,1.2,1.1,2.1,1
		c2.5-0.4,4.3-2.2,4.7-4.7C19.7,48.1,19.1,47,17.7,46.4z M14.8,53.7c-0.7,0.2-1.6-0.3-2.2-1.3c-0.8-1.3-1.2-2.7-0.8-4.3
		c0.3-1.4,1.5-1.7,2.6-0.8c1,0.9,1.6,2.4,1.6,4C15.9,52.6,15.5,53.5,14.8,53.7z"/>
	<path fill="#646464" d="M47.4,36.1c2.2,0.8,4.1,1.5,6.2,2.3c0.3-1.7,0.6-3.2,0.9-4.7c0-0.2-0.1-0.5-0.2-0.5
		c-1.9-0.7-3.7-1.4-5.7-2.1c0,1,0,1.8,0,2.7C48.5,34.6,48.8,35.6,47.4,36.1z"/>
	<path fill="#646464" d="M41.6,29.3c1.9-1.2,2.8-2.8,3-5c0.1-1.1-1-2.2-2-2.2c-1.9-0.1-3.5,0.8-4.9,2C41,24.5,42.4,26.4,41.6,29.3z"
		/>
	<path fill="#646464" d="M54.7,55c0-1.5-1.2-2.7-2.8-2.7c-1.5,0-2.6,1.2-2.6,2.6c0,1.5,1.2,2.8,2.7,2.8C53.6,57.6,54.8,56.5,54.7,55
		z"/>
	<path fill="#646464" d="M46.4,78.4c0,1.5,1.2,2.8,2.7,2.8c1.5,0,2.6-1.1,2.6-2.6c0-1.6-1.2-2.7-2.7-2.7
		C47.5,75.8,46.4,76.9,46.4,78.4z"/>
	<path fill="#646464" d="M48.4,62.8c0,1.6,1.2,2.7,2.7,2.8c1.5,0,2.6-1.1,2.6-2.6c0-1.5-1.2-2.7-2.8-2.7
		C49.6,60.3,48.5,61.4,48.4,62.8z"/>
	<path fill="#646464" d="M47.5,70.7c0,1.6,1.2,2.7,2.7,2.7c1.5,0,2.6-1.1,2.6-2.6c0-1.6-1.2-2.8-2.7-2.8
		C48.6,68.1,47.5,69.2,47.5,70.7z"/>
	<path fill="#646464" d="M47.8,28c0.6,0.2,1.2,0.4,1.8,0.6c-1.5-1-2.9-2.1-3.9-3.6c0,0.3,0.1,0.5,0.3,0.7c0.4,0.5,0.7,1,1.1,1.4
		c0.4,0.4,0.4,0.7,0.2,1.2c-0.8,2.3-1.5,4.6-2.3,6.8c-0.1,0.4-0.3,0.8-0.4,1.2c-0.6-1.1-2.2-1.6-1.7-3.3c-1,0.7-2,1.3-3,2
		c2.2,0.8,4.1,1.5,6.2,2.3C46.7,34.2,47.2,31.2,47.8,28z"/>
	<path fill="#646464" d="M42.4,65.9c0-1.5-0.9-2.6-1.9-2.6c-1.2,0-2.3,1.3-2.3,2.6c0,1.3,1.3,2.6,2.4,2.6
		C41.6,68.6,42.4,67.4,42.4,65.9z"/>
	<path fill="#646464" d="M38.7,70.5c-0.8,0.1-1.4,0.7-1.6,1.6C37,72.4,37,72.7,37,72.9L36.8,73c0.3,0.7,0.6,1.5,1.1,2.2
		c0.4,0.6,1.1,0.7,1.8,0.6c0.7-0.2,1-0.7,1.2-1.3c0.3-1,0.1-2-0.3-2.9C40,70.7,39.4,70.4,38.7,70.5z"/>
	<path fill="#646464" d="M43.5,60.1c0.2-0.8,0.2-1.7,0-2.5c-0.2-0.8-0.9-1.3-1.7-1.3c-0.8,0-1.4,0.4-1.7,1.1
		c-0.2,0.5-0.3,1.1-0.4,1.4c0,0.4,0,0.7,0.1,0.9c0.2,0.9,1,1.6,1.9,1.7C42.5,61.6,43.3,61.1,43.5,60.1z"/>
	<path fill="#646464" d="M59.6,34c-0.7,0-1.3,0-1.9,0c0,1.9,0,3.6,0,5.4c0.9,0,1.7,0,2.4,0c0-1.7,0-3.3,0-5C60,34.3,59.7,34,59.6,34
		z"/>
	<path fill="#646464" d="M68.7,7.5c0.9,0,1.6-0.7,1.6-1.6c0-1-1-1.9-2-1.9c-0.9,0-1.6,0.7-1.6,1.6C66.7,6.6,67.6,7.5,68.7,7.5z"/>
	<path fill="#646464" d="M19.8,47.6c0.1,0.4,0.2,0.8,0.4,1.2c1.9-0.7,3.8-1.3,5.7-2.1c0.2-0.1,0.2-0.5,0.3-0.8
		c-0.3-0.1-0.6-0.4-0.8-0.3C23.6,46.3,21.7,47,19.8,47.6z"/>
	<path fill="#646464" d="M44.6,34.5c0.5-1.3,0.8-2.7,1.4-3.9c0.5-1.1,0.1-1.7-0.8-2.4c-0.5,1.4-0.8,2.7-1.3,3.9
		C43.4,33.2,43.7,33.9,44.6,34.5z"/>
	<path fill="#646464" d="M34.2,63.9c-0.2,1.1,0.1,2,1,2.8c1.1-1.5,1.5-3,1.1-4.8C35.1,62.2,34.4,62.9,34.2,63.9z"/>
	<path fill="#646464" d="M36.9,52.5c-0.2,1.1,0.2,2.1,1.1,2.6c1-1.4,1.4-2.9,1-4.6C37.8,50.8,37.1,51.5,36.9,52.5z"/>
	<path fill="#646464" d="M35.5,58.3c-0.2,1.1,0.1,2,1,2.8c1.1-1.4,1.5-2.9,1.1-4.8C36.5,56.6,35.7,57.2,35.5,58.3z"/>
	<path fill="#646464" d="M38.8,25.3c-0.6,0-1.1,0.3-1.1,1c0,1,0.9,2.1,1.9,2.3c0.7,0.1,1.2-0.3,1.2-1C40.8,26.5,39.8,25.4,38.8,25.3
		z"/>
	<path fill="#646464" d="M38.3,47c-0.3,1,0,2,0.9,2.6c1.1-1,1.6-2.8,1.2-4.3C39.4,45.4,38.6,46.1,38.3,47z"/>
</g>
</svg>
