<?xml version="1.0" encoding="utf-8"?>
<!-- Generator: Adobe Illustrator 17.1.0, SVG Export Plug-In . SVG Version: 6.00 Build 0)  -->
<!DOCTYPE svg PUBLIC "-//W3C//DTD SVG 1.1//EN" "http://www.w3.org/Graphics/SVG/1.1/DTD/svg11.dtd">
<svg version="1.1" id="Layer_1" xmlns="http://www.w3.org/2000/svg" xmlns:xlink="http://www.w3.org/1999/xlink" x="0px" y="0px"
	 viewBox="0 0 100 100" enable-background="new 0 0 100 100" xml:space="preserve">
<g>
	<path fill="none" d="M84.5,46.7c0.2-0.3,0.5-0.4,0.8-0.3c0.1,0,0.2,0,0.3-0.1c0.5-0.2,0.5-0.2,0.7,0.2c0,0.1,0.1,0.2,0.1,0.2
		c0.3-0.1,0.6-0.2,0.9-0.3c0.2-0.1,0.3-0.3,0.2-0.5c-0.2-0.3-0.3-0.6-0.5-0.9c0-0.1-0.1-0.2-0.2-0.2c-0.2,0.1-0.3,0.1-0.5,0.2
		c-0.2,0.1-0.3,0.2-0.5,0.2c-0.2,0.1-0.4,0.1-0.6,0.2c-0.2,0.1-0.5,0.1-0.7,0.1c-0.5,0.1-0.9,0.3-1.4,0.4c-0.5,0.1-1,0.3-1.5,0.5
		c0.1,0.2,0.1,0.3,0.2,0.5c0.1,0.3,0.5,0.5,0.9,0.6c0.3-0.1,0.5-0.3,0.8-0.3C84.1,47,84.3,46.9,84.5,46.7z"/>
	<path fill="none" d="M86.1,43.8c0,0,0.1,0,0.1-0.1c-0.1-0.2-0.2-0.3-0.3-0.5c0,0.1,0,0.2,0.1,0.4C86.1,43.7,86.1,43.7,86.1,43.8z"
		/>
	<path fill="none" d="M81.5,44.6c0,0,0-0.1,0-0.2c-0.3,0.1-0.3,0.2-0.1,0.6c0,0,0,0,0,0.1c0,0,0,0,0,0.1
		C81.6,44.9,81.6,44.8,81.5,44.6z"/>
	<path fill="none" d="M51.2,53.4c0.2-0.3,0.5-0.7,1-0.7c0.1,0,0.1,0,0.2,0c0-0.2,0-0.4,0-0.6c0-0.3,0.1-0.6,0.1-0.9
		c0-0.4,0.1-0.9,0.1-1.3c0-0.1,0.1-0.2,0.1-0.3c0-0.1,0-0.2,0-0.2c0,0-0.2,0-0.2,0c-0.2,0.1-0.5,0.2-0.7,0.2c-0.5,0-0.8,0.4-1,0.7
		c-0.2,0.3-0.3,0.7-0.2,1.1c0,0.1,0,0.3-0.1,0.4c-0.1,0.2-0.2,0.4,0,0.6c0.1,0.2,0,0.4,0,0.6c0,0.3,0,0.6,0.1,0.8
		c0.1,0.3,0.2,0.5,0.4,0.8c0,0,0-0.1,0-0.1C51,54.1,51,53.7,51.2,53.4z"/>
	<path fill="none" d="M53.2,52.7c0.1,0.3,0.2,0.5,0.3,0.8c0,0.1,0,0.2,0.1,0.3c0.1,0.2,0.1,0.5,0.4,0.7c0.1,0,0.1,0.2,0.1,0.3
		c0,0.2,0,0.3,0.2,0.4c0.1,0,0.1,0.2,0.2,0.4c0.1,0.1,0.2,0.2,0.3,0.3c0.1,0.1,0.2,0.2,0.3,0.3c0.1,0.1,0.3,0.2,0.4,0.2
		c0.1,0,0.3,0,0.4,0.1c0.3,0.1,0.6,0.1,0.8-0.1c0.1-0.1,0.1-0.1,0.1-0.2c-0.1-0.1-0.2-0.3-0.3-0.4c-0.2-0.7-0.1-1.1,0.4-1.4
		c-0.2-0.3-0.4-0.6-0.6-0.8c-0.1-0.1-0.3-0.1-0.4-0.1c-0.5,0.1-0.9-0.1-1-0.5c-0.1-0.3-0.2-0.6-0.1-0.9c0.1-0.5,0.1-1.1,0.7-1.5
		c0.5-0.3,0.6-0.8,0.8-1.2c0,0,0-0.1,0-0.1c-0.3-0.2-0.5-0.5-0.9-0.5c-0.3-0.1-0.7,0.1-1.1,0.1c0,0,0,0,0,0.1
		c-0.5,0.1-0.6,0.4-0.8,0.7c-0.2,0.4-0.3,0.8-0.2,1.2c0,0.1,0,0.3-0.1,0.4c-0.2,0.5-0.2,0.9-0.1,1.3c0,0,0,0,0,0
		C53.2,52.5,53.2,52.6,53.2,52.7z"/>
	<path fill="none" d="M52.8,56.1c0,0.2,0.2,0.4,0.2,0.5c0.1,0.2,0.1,0.3,0.1,0.5c0.1,0,0.1,0,0.2,0c0.1,0,0.3,0,0.4-0.1
		c0.1-0.1,0.3-0.3,0.2-0.4c-0.3-0.7-0.6-1.3-0.8-2C53,54.7,53,54.5,53,54.4c0,0.3-0.1,0.6-0.1,0.8C52.8,55.5,52.8,55.8,52.8,56.1z"
		/>
	<path fill="none" d="M48.9,56.8c-0.1,0-0.4,0.1-0.4,0.2c-0.4,0.7-1,1-1.8,1.1c0,0-0.1,0-0.1,0c-0.9,0.6-2,0.8-3,1.2
		c-0.3,0.1-0.7,0.3-1.1,0.3c-0.2,0-0.5,0.2-0.8,0.2c-0.3,0.1-0.7,0.1-1,0.2c-0.1,0-0.2,0-0.3,0.1c-0.4,0.5-0.9,0.4-1.4,0.6
		c-0.5,0.2-1.1,0.3-1.6,0.5c-0.3,0.1-0.6,0.4-0.9,0.4c-0.5,0-1,0.3-1.5,0.4c-0.4,0.1-0.8,0.2-1.1,0.4c-0.1,0.1-0.3,0-0.4,0
		c-0.2,0-0.5-0.2-0.7-0.1c-0.4,0.1-0.6,0.5-0.7,0.8c0,0.1,0.1,0.3,0.2,0.4c0.2,0.2,0.5,0.3,0.7,0.4c0.1,0,0.2,0,0.3,0
		c0.1-0.1,0.2-0.3,0.3-0.4c0.2-0.1,0.3-0.3,0.5-0.4c0.2-0.1,0.5-0.3,0.7-0.4c0,0,0.1,0,0.1-0.1c0.3,0,0.6,0,0.9,0c0.1,0,0.1,0,0.2,0
		c0.4-0.3,0.8-0.2,1.3-0.3c0.1,0,0.1,0,0.2,0c0.4-0.2,0.8-0.4,1.3-0.6c0.1-0.1,0.3-0.1,0.4-0.2c0.3-0.3,0.8-0.2,1.2-0.3
		c0.2-0.1,0.4-0.1,0.7-0.1c0.3-0.1,0.6-0.1,0.9-0.2c0.2,0,0.3-0.1,0.5-0.2c0.1-0.1,0.2-0.1,0.4-0.2c0.3-0.1,0.6-0.1,0.9-0.1
		c0.5-0.2,1.1-0.4,1.6-0.6c0.4-0.2,0.8-0.4,1.2-0.6c0.1,0,0.2-0.1,0.2-0.1c0.4,0,0.6-0.3,0.8-0.4c0.1-0.1,0.3-0.1,0.4-0.1
		c0.3,0,0.6,0.1,0.9,0.1c0.3,0,0.5-0.1,0.8-0.2c0.2-0.1,0.4-0.1,0.5-0.3c0-0.3,0.1-0.6,0.1-0.9c0,0,0-0.1,0-0.1
		C49.6,57,49.3,56.8,48.9,56.8z"/>
	<path fill="none" d="M66.5,48.6c0-0.1-0.2-0.2-0.3-0.2c-0.4,0-0.8,0-1.2,0.1c-0.1,0-0.2,0.1-0.3,0.2c-0.3,0.2-0.6,0.4-0.9,0.3
		c-0.2,0-0.4,0.1-0.6,0.1c-0.3,0.1-0.6,0.2-0.9,0.2c-0.3,0-0.5,0.1-0.7,0.3c-0.3,0.3-0.6,0.3-0.9,0.2c-0.4-0.2-0.8-0.1-1.2,0.1
		c-0.1,0-0.2,0.1-0.2,0.1c-0.3-0.1-0.6,0.1-1,0.1c-0.6,0.1-1.1,0.4-1.6,0.6c-0.8,0.4-0.9,0.7-0.7,1.6c0.3,0.3,0.5,0.7,1,0.9
		c0.1,0,0.3-0.1,0.4-0.1c0.4,0,0.7-0.1,1.1-0.1c0.3,0,0.5-0.1,0.8-0.1c0,0,0.1,0,0.1-0.1c0.5-0.4,1.1-0.6,1.7-0.8c0,0,0,0,0,0
		c0.5,0.2,0.8-0.2,1.2-0.4c0.4-0.2,0.8-0.3,1.3-0.4c0.4-0.1,0.8-0.2,1.2-0.4c0,0,0.1,0,0.1-0.1c0.3-0.5,0.7-0.5,1.2-0.4
		c0.2,0,0.9-0.4,0.9-0.5c0-0.2,0-0.3-0.1-0.5C66.7,49.2,66.6,48.9,66.5,48.6z"/>
	<path fill="none" d="M16,65.2c-0.1-0.3-0.1-0.5-0.4-0.7c-0.1-0.1-0.2-0.3-0.2-0.5c0-0.3,0.1-0.5,0.1-0.8c0-0.2,0-0.2-0.2-0.3
		c-0.4-0.1-0.8,0.1-1.1,0.3c-0.2,0.2-0.5,0.3-0.8,0.3c-0.2,0-0.5,0.3-0.7,0.4c-0.3,0.3-0.5,0.7-0.7,1c0,0.1-0.1,0.3-0.1,0.4
		c0,0.6-0.4,1.1-0.3,1.7c0.1,0.3,0,0.6,0,0.8c0,0.1,0.1,0.2,0.2,0.3c0.3,0.2,0.7,0.4,0.8,0.8c0.1,0.2,0.4,0.3,0.6,0.4
		c0.2,0.1,0.4,0.3,0.7,0.4c0.2,0.1,0.5,0,0.7,0.1c0.2-0.2,0.4-0.3,0.6-0.5c0.3-0.3,0.6-0.6,0.5-1c0-0.2,0-0.5-0.1-0.7
		c-0.2-0.4,0-0.6,0.2-1c0.1-0.1,0.2-0.2,0.3-0.4c0.1-0.1,0.1-0.3,0-0.4C16.2,65.7,16.1,65.5,16,65.2z"/>
	<path fill="none" d="M88.2,39.6c-0.4,0.1-0.8,0.2-1.2,0.4c-0.2,0.1-0.4,0.1-0.6,0.2c-0.2,0.1-0.3,0.2-0.4,0.3
		c-0.1,0.1-0.2,0.1-0.3,0.1c0-0.1,0-0.1-0.1-0.2c-0.2-0.4-0.1-0.8,0-1.3c0-0.2,0-0.3-0.3-0.2c-0.3,0-0.5,0-0.8,0.1
		c-0.1,0-0.3,0.1-0.4,0.1c-0.3,0.2-0.7,0.3-1.1,0.4c-0.7,0.1-1.3,0.5-1.6,1c-0.1,0.1-0.2,0.3-0.3,0.4c-0.1,0.1-0.1,0.3,0,0.4
		c0.1,0.3,0.1,0.4-0.2,0.6c-0.2,0.1-0.4,0.2-0.7,0.3c0,0,0,0,0,0c-0.6,0.3-1.2,0.7-1.9,1c-0.3,0.1-0.5,0.3-0.7,0.6
		c-0.1,0.1-0.1,0.3,0,0.4c0.2,0.1,0.3,0.3,0.6,0.2c0.4-0.1,0.9-0.3,1.2-0.6c0.2-0.1,0.4-0.2,0.6-0.2c0.4,0.1,0.7-0.2,1-0.3
		c0.6-0.3,1.1-0.6,1.8-0.7c0.5-0.1,0.9-0.2,1.4-0.4c0.2-0.1,0.5-0.1,0.7-0.1c0.2,0,0.4-0.1,0.6-0.2c0.2-0.1,0.3-0.1,0.5-0.2
		c0.3-0.1,0.6-0.2,0.9-0.3c0.5-0.1,1-0.3,1.5-0.4c0.3-0.1,0.6-0.6,0.6-0.8C88.9,39.7,88.6,39.5,88.2,39.6z"/>
	<path fill="none" d="M93.2,39.4c0,0,0.2-0.1,0.3-0.1c0.2,0,0.5,0,0.7,0c0.2,0,0.5,0,0.7,0.1c0.3,0.1,0.6,0.2,0.9,0.3
		c0.4,0.2,0.8,0.4,1.2,0.7c0.2,0.2,0.4,0.4,0.6,0.6c0-0.1,0.1-0.2,0.1-0.4c0-0.4,0.2-0.8,0.3-1.1c0.1-0.5-0.1-0.9-0.4-1.2
		c-0.3-0.4-0.6-0.8-1-1.1c-0.3-0.3-0.8-0.5-1.2-0.7c-0.3-0.1-0.6-0.2-0.9-0.3c-0.2-0.1-0.5-0.1-0.7-0.1c-0.2,0-0.5,0-0.7,0
		c-0.1,0-0.2,0-0.3,0.1c-0.1,0.2-0.1,0.5-0.2,0.7c-0.2,0.6-0.2,1.3-0.2,1.9c0,0.1,0,0.1,0,0.2c-0.2,0.4-0.1,0.8,0.2,1.1
		c0,0,0.1,0.1,0.1,0.2c-0.1,0.4,0,0.8,0.2,1.2c0-0.4,0.1-0.8,0.2-1.3C93.1,39.9,93.1,39.6,93.2,39.4z"/>
	<path d="M98.5,38.1c-0.1-0.2-0.4-0.4-0.5-0.6c-0.2-0.2-0.4-0.5-0.6-0.7c-0.2-0.2-0.5-0.4-0.7-0.5c-0.6-0.3-1.2-0.6-1.9-0.9
		c-0.1-0.1-0.3,0-0.5,0c-0.2,0.1-0.4,0.1-0.6,0c-0.5-0.1-0.9-0.2-1.4,0.2c-0.2,0.1-0.4,0.2-0.5,0.1c-0.5-0.4-1.1-0.2-1.7,0
		c-0.6,0.2-1.2,0.4-1.7,0.6c-0.5,0.2-1,0.3-1.6,0.4c-0.4,0.1-0.7,0.1-1.1,0.2c-0.5,0.1-1,0.2-1.3,0.6c0,0-0.1,0.1-0.2,0.1
		c-0.6,0.1-1.2,0.4-1.8,0.6c-0.1,0-0.2,0-0.3,0c-0.2,0.1-0.5,0.1-0.6,0.2c-0.4,0.3-0.8,0.4-1.2,0.5c-0.4,0.1-0.8,0.3-1.2,0.5
		c-0.4,0.3-0.7,0.7-1.1,1.1c-0.1,0.1-0.4,0.2-0.6,0.3c-0.1,0.1-0.3,0.1-0.4,0.1c-0.5,0.1-0.9,0.5-1.4,0.5c-0.4,0.1-0.8,0.2-1.2,0.4
		c-0.5,0.2-0.8,0.5-1.1,1c-0.1,0.2-0.6,0.3-0.9,0.4c-0.6,0.2-1.2,0.2-1.6,0.8c-0.3,0.4-0.6,0.8-0.9,1.1c-0.1,0.1-0.2,0.1-0.3,0.1
		c-0.5-0.1-1,0-1.5,0.1c-0.6,0.1-1.2,0.3-1.7,0.4c-0.2,0.1-0.4,0.2-0.6,0.2c-0.6,0.1-1.2,0.1-1.8,0.3c-0.5,0.1-1,0.3-1.4,0.5
		c-0.1,0-0.2,0.1-0.3,0.1c-0.1,0-0.2,0-0.2,0c-0.7,0.2-1.4,0.4-2.2,0.6c-0.1,0-0.3,0.1-0.4,0.1c-0.5,0.1-0.9,0.4-1.4,0.6
		c-0.7,0.3-1.4,0.4-2-0.1c-0.2-0.1-0.4-0.2-0.6-0.3c-0.4-0.1-0.7,0.1-1.1,0.2c-0.6,0.1-1.2,0.3-1.8,0.4c-0.2,0-0.3,0.1-0.4,0.1
		c-0.2,0.1-0.5,0.1-0.7,0.2c-0.2,0-0.3,0.1-0.5,0.2c0,0-0.1,0.1-0.1,0.1c-0.5,0.1-1,0.2-1.5,0.5c-0.1,0-0.2,0-0.3,0
		c-0.1,0-0.2,0-0.3,0.1c-0.3,0.3-0.7,0.3-1.1,0.4c-0.3,0.1-0.5,0.3-0.8,0.4c-0.2,0.1-0.4,0.1-0.5,0.1c-0.2,0.1-0.5,0.1-0.7,0.2
		c-0.4,0.1-0.8,0.3-1.3,0.4c-0.1,0-0.3,0.1-0.4,0.2c-0.1,0-0.2,0.1-0.3,0.1c-0.6,0.2-1.1,0.3-1.7,0.5c-0.3,0.1-0.6,0.3-0.9,0.3
		c-0.4,0.1-0.7,0.4-1.1,0.4c-0.3,0-0.6,0.2-0.9,0.4c-0.2,0.1-0.5,0.3-0.7,0.2c-0.1,0-0.2,0.1-0.4,0.1c-0.5,0.2-1,0.5-1.6,0.4
		c-0.1,0-0.3,0.1-0.5,0.2c-0.3,0.2-0.7,0.4-1.1,0.4c-0.2,0-0.4,0.1-0.6,0.2c-0.5,0.2-0.9,0.4-1.4,0.6c-0.2,0.1-0.5,0.1-0.7,0.2
		c-0.4,0.2-0.8,0.1-1.1,0.4c-0.1,0.1-0.3,0.1-0.4,0.2c-0.5,0.1-1,0.2-1.5,0.4c-0.4,0.2-0.7,0.5-1,0.8c-0.2,0.2-0.4,0.3-0.7,0.4
		c-0.7,0.1-1.4,0.3-2.1,0.6c-0.1,0.1-0.4,0.1-0.5,0c-0.4-0.1-0.8,0.1-1.2,0.2c-0.3,0.1-0.6,0.4-0.9,0.7c-0.4,0.4-0.9,0.5-1.4,0.5
		c-0.4-0.1-0.7,0.1-1.1,0.2c-0.3,0.1-0.5,0.2-0.6,0.5c0,0.1-0.2,0.1-0.3,0.2c-0.6,0.1-1.1,0.2-1.7,0.4c-0.5,0.2-1,0.5-1.2,1
		c-0.1,0.2-0.3,0.3-0.6,0.3c-0.6-0.1-1.3,0-1.9,0.4c-0.2,0.2-0.4,0.3-0.7,0.3c-0.2,0-0.4,0.2-0.6,0.3c-0.3,0.1-0.6,0.2-0.9,0.3
		c-0.1,0-0.2,0-0.3,0.1c-0.5,0.2-0.9,0.4-1.4,0.6c-0.4,0.2-0.8,0.3-1.2,0.4c-0.1,0-0.2,0-0.2,0.1c-0.4,0.4-1,0.5-1.5,0.8
		c-0.3,0.1-0.5,0.4-0.8,0.6c-0.2,0.2-0.4,0.3-0.8,0.3c-0.4,0-0.6,0.3-0.6,0.6c0.1,0.5-0.2,0.7-0.7,0.8c-0.4,0.1-0.8,0.2-1,0.5
		c-0.2,0.3-0.5,0.6-0.6,0.9c-0.1,0.4,0.1,0.8,0.2,1.1c0,0.1,0.1,0.1,0.1,0.2c0.1,1.1,0.9,1.5,1.9,2c0.3,0.1,0.6,0.1,0.8,0
		c0.5-0.3,0.8,0,1.1,0.2c0.4,0.4,1,0.2,1.4,0.1c0.6-0.1,1.1-0.2,1.7-0.4c0.1,0,0.3-0.1,0.4-0.1c0.4-0.1,0.8-0.1,1.2-0.2
		c0.6-0.1,1.2-0.3,1.9-0.4c0.3-0.1,0.6-0.1,0.9-0.1c0.2-0.1,0.5-0.2,0.7-0.3c0.3-0.1,0.7-0.2,1-0.4c0.7-0.3,1.3-0.5,2-0.8
		c0.2-0.1,0.4-0.3,0.6-0.5c0.1-0.1,0.2-0.1,0.3-0.1c0.3,0.1,0.6,0.2,1,0c0,0,0.1,0,0.2,0c0.5,0,1-0.2,1.4-0.4c0.2-0.1,0.4-0.1,0.6,0
		c0.2,0.1,0.6,0.1,0.8,0.1c0.3,0,0.5-0.1,0.7-0.4c0.1-0.1,0.4-0.3,0.5-0.3c0.5,0,0.9-0.2,1.4-0.4c0.2-0.1,0.4-0.1,0.6-0.1
		c0.1,0,0.3,0,0.4,0c0.4-0.1,0.8-0.2,1.2-0.4c0.5-0.2,1-0.3,1.5-0.4c0.2,0,0.5-0.2,0.7-0.3c0.3-0.3,0.6-0.5,1.1-0.4
		c0.1,0,0.2,0,0.2,0c0.8-0.3,1.7-0.3,2.4-0.9c0,0,0.2,0,0.2-0.1c0.4-0.1,0.8-0.3,1.2-0.4c0.2-0.1,0.5-0.1,0.7-0.2
		c0.6-0.1,1.1-0.3,1.7-0.4c0.3-0.1,0.7-0.3,1-0.5C38.6,64,38.8,64,39,64c0.3-0.1,0.7-0.2,0.9-0.5c0.1-0.1,0.2-0.1,0.4-0.1
		c0.9-0.2,1.8-0.5,2.7-0.7c0.2,0,0.3-0.2,0.4-0.3c0.1,0,0.1-0.1,0.2-0.1c0.5-0.1,1-0.2,1.5-0.2c0.1,0,0.2,0,0.2,0
		c0.4,0.1,0.8-0.1,1.1-0.3c0.1-0.1,0.2-0.1,0.4-0.1c0.4,0,0.8-0.2,1.2-0.4c0.2-0.1,0.5-0.2,0.7-0.2c0.1,0,0.2,0,0.3-0.1
		c0.3-0.3,0.6-0.4,1.1-0.4c0.3,0,0.5-0.1,0.8-0.2c0.1,0,0.3-0.1,0.4-0.1c0.5,0.1,0.8-0.1,1.2-0.4c0,0,0.1,0,0.1,0
		c-0.2-0.1-0.3-0.3-0.5-0.4c-0.2-0.3-0.4-0.5-0.5-0.9c-0.1-0.5-0.4-0.9-0.6-1.3c-0.1-0.2,0-0.5-0.1-0.8c0-0.2,0.1-0.5,0-0.6
		c-0.1-0.2-0.1-0.4,0-0.6c0-0.1,0-0.2,0-0.4c-0.1-0.3-0.3-0.5-0.4-0.8c-0.1-0.2,0-0.5-0.1-0.8c0-0.2,0.1-0.5,0-0.6
		c-0.1-0.2-0.1-0.4,0-0.6c0-0.1,0.1-0.3,0.1-0.4c0-0.4,0-0.8,0.2-1.1c0.2-0.3,0.5-0.7,1-0.7c0.2,0,0.5-0.1,0.7-0.2
		c0.1,0,0.2,0,0.2,0c0,0,0,0.1,0,0.2c0,0.1-0.1,0.2-0.1,0.3c0,0.4-0.1,0.9-0.1,1.3c0,0.3-0.1,0.6-0.1,0.9c0,0.2,0,0.4,0,0.6
		c0.2,0,0.3-0.1,0.5-0.1c0.1,0,0.1,0,0.2,0c-0.1-0.4-0.1-0.9,0.1-1.3c0.1-0.1,0.1-0.3,0.1-0.4c-0.1-0.4-0.1-0.8,0.2-1.2
		c0.2-0.3,0.3-0.7,0.8-0.7c0,0,0,0,0-0.1c0.4-0.1,0.7-0.2,1.1-0.1c0.3,0.1,0.6,0.3,0.9,0.5c0,0,0,0.1,0,0.1
		c-0.3,0.4-0.4,0.9-0.8,1.2c-0.6,0.4-0.7,1-0.7,1.5c-0.1,0.3,0.1,0.6,0.1,0.9c0.1,0.4,0.5,0.6,1,0.5c0.1,0,0.3,0,0.4,0.1
		c0.3,0.2,0.5,0.5,0.6,0.8c0.1-0.1,0.2-0.1,0.3-0.2c0.5-0.3,1-0.5,1.6-0.6c0.3-0.1,0.6-0.3,1-0.1c0.1,0,0.2,0,0.2-0.1
		c0.4-0.2,0.8-0.3,1.2-0.1c0.3,0.1,0.6,0.1,0.9-0.2c0.2-0.2,0.4-0.3,0.7-0.3c0.3,0,0.6-0.2,0.9-0.2c0.2-0.1,0.4-0.2,0.6-0.1
		c0.4,0,0.7-0.1,0.9-0.3c0.1-0.1,0.2-0.2,0.3-0.2c0.4,0,0.8-0.1,1.2-0.1c0.1,0,0.3,0.1,0.3,0.2c0.2,0.3,0.3,0.6,0.4,0.9
		c0,0.1,0.1,0.2,0.1,0.3c0.1,0,0.2,0,0.3,0c0.3-0.1,0.6-0.1,0.8-0.3c0.4-0.3,0.8-0.4,1.3-0.6c0.5-0.1,0.9-0.2,1.3-0.5
		c0.2-0.1,0.4-0.4,0.6-0.7c0-0.1,0.1-0.1,0.1-0.2c0.2,0.1,0.4,0.2,0.5,0.3c0.3,0.2,0.6,0.2,1,0.1c0.2-0.1,0.4,0,0.6,0
		c0.2,0,0.5,0,0.7-0.1c0.2,0,0.4-0.1,0.6-0.2c0.4-0.1,0.7-0.2,1-0.6c0-0.1,0.2-0.1,0.4,0c0.1,0,0.2,0.1,0.3,0.2
		c0.2,0.2,0.5,0.3,0.8,0.1c0,0,0.1,0,0.1,0c0.4,0.2,0.8-0.1,1.2-0.1c0.1,0,0.1,0,0.2,0c0.2-0.2,0.5-0.2,0.8-0.3
		c0.4-0.1,0.6-0.1,0.9,0.1c0.3,0.3,0.8,0.1,1.2,0c0.2,0,0.3-0.1,0.5-0.2c0,0,0,0,0,0c0,0,0,0,0-0.1c-0.2-0.6-0.6-1.1-0.6-1.8
		c0,0,0,0,0-0.1c-0.2-0.5-0.2-0.5,0.4-0.6c0.1,0,0.2,0,0.3,0c0.1,0,0.3-0.1,0.4-0.2c0,0,0,0,0,0c-0.4,0-0.8-0.2-0.9-0.6
		c0-0.2-0.1-0.4-0.2-0.5c-0.1,0.1-0.2,0.1-0.3,0.2c-0.3,0.2-0.6,0.4-1,0.3c-0.3-0.1-0.4,0-0.6,0.2c-0.4,0.3-0.8,0.5-1.2,0.6
		c-0.3,0.1-0.4-0.1-0.6-0.2c-0.1,0,0-0.3,0-0.4c0.1-0.3,0.4-0.4,0.7-0.6c0.6-0.3,1.3-0.6,1.9-1c0,0,0,0,0,0c0.2-0.1,0.4-0.2,0.7-0.3
		c0,0,0,0,0.1-0.1c0,0,0,0,0-0.1c0,0,0,0,0-0.1c-0.2-0.4-0.2-0.5,0.1-0.6c0-0.1,0-0.2,0.1-0.2c0.1-0.1,0.2-0.3,0.3-0.4
		c0.4-0.6,1-0.9,1.6-1c0.4-0.1,0.7-0.2,1.1-0.4c0.1-0.1,0.3-0.1,0.4-0.1c0.3,0,0.5,0,0.8-0.1c0.2,0,0.3,0.1,0.3,0.2
		c-0.1,0.3-0.2,0.6-0.1,0.9c0.1,0.2,0.2,0.3,0.3,0.5c0,0,0.1,0,0.1-0.1c0.1-0.1,0.3-0.2,0.4-0.3c0.2-0.1,0.4-0.1,0.6-0.2
		c0.4-0.1,0.8-0.3,1.2-0.4c0.4-0.1,0.7,0.1,0.8,0.5c0,0.3-0.3,0.7-0.6,0.8c-0.5,0.1-1,0.3-1.5,0.4c-0.1,0-0.3,0.1-0.4,0.1
		c0.1,0.1,0.1,0.2,0.2,0.2c0.2,0.3,0.3,0.6,0.5,0.9c0.1,0.2,0,0.4-0.2,0.5c-0.3,0.1-0.6,0.2-0.9,0.3c0.2,0.3,0.3,0.5,0.5,0.8
		c0.1,0.2,0.3,0.4,0.5,0.7c0.1,0.1,0.1,0.2,0.2,0.3c0,0,0.1,0,0.1,0c0.3-0.1,0.6-0.2,0.9-0.3c0.2-0.1,0.5-0.1,0.8-0.2
		c0.8-0.3,1.7-0.5,2.5-0.8c0.2-0.1,0.4-0.1,0.5-0.1c0.6,0,1-0.2,1.4-0.6c0.1-0.1,0.2-0.3,0.3-0.4c-0.2-0.3-0.4-0.5-0.5-0.8
		c-0.4-0.6-0.7-1.1-0.6-1.8c0-0.1,0-0.1-0.1-0.2c-0.3-0.3-0.4-0.6-0.2-1.1c0,0,0-0.1,0-0.2c0-0.2,0-0.4,0-0.7
		c-0.2-0.4-0.3-0.7-0.2-1.2c0-0.1,0-0.1-0.1-0.2c-0.3-0.3-0.4-0.6-0.2-1.1c0,0,0-0.1,0-0.2c0-0.6,0-1.3,0.2-1.9
		c0.1-0.2,0.1-0.5,0.2-0.7c0,0,0.2-0.1,0.3-0.1c0.2,0,0.5,0,0.7,0c0.2,0,0.5,0,0.7,0.1c0.3,0.1,0.6,0.2,0.9,0.3
		c0.4,0.2,0.8,0.4,1.2,0.7c0.4,0.3,0.7,0.7,1,1.1c0.3,0.3,0.5,0.7,0.4,1.2c-0.1,0.4-0.4,0.7-0.3,1.1c0,0.1,0,0.2-0.1,0.4
		c0.2,0.2,0.3,0.4,0.4,0.5c0.3,0.3,0.5,0.7,0.4,1.2c-0.1,0.3-0.3,0.6-0.3,0.9c0.2-0.2,0.4-0.5,0.5-0.8c0.1-0.2,0.2-0.3,0.2-0.5
		c0-0.2,0-0.4,0-0.7c0-0.3,0.1-0.5,0.1-0.8c0-0.1,0.1-0.2,0.1-0.2C98.9,39.8,99,38.9,98.5,38.1z M16.2,66.4
		c-0.1,0.1-0.2,0.2-0.3,0.4c-0.2,0.3-0.4,0.6-0.2,1c0.1,0.2,0.1,0.5,0.1,0.7c0,0.4-0.3,0.7-0.5,1c-0.2,0.2-0.4,0.3-0.6,0.5
		c-0.3,0-0.5,0-0.7-0.1c-0.2-0.1-0.5-0.2-0.7-0.4c-0.2-0.1-0.6-0.2-0.6-0.4c-0.2-0.4-0.5-0.6-0.8-0.8c-0.1-0.1-0.2-0.2-0.2-0.3
		c0-0.3,0.1-0.6,0-0.8c-0.2-0.6,0.3-1.1,0.3-1.7c0-0.1,0-0.3,0.1-0.4c0.1-0.4,0.3-0.7,0.7-1c0.2-0.2,0.5-0.4,0.7-0.4
		c0.3,0,0.6-0.1,0.8-0.3c0.3-0.2,0.7-0.4,1.1-0.3c0.2,0,0.2,0.1,0.2,0.3c-0.1,0.3-0.1,0.5-0.1,0.8c0,0.2,0.1,0.4,0.2,0.5
		c0.3,0.2,0.3,0.4,0.4,0.7c0.1,0.3,0.2,0.5,0.2,0.8C16.3,66.1,16.3,66.3,16.2,66.4z M49.9,58c0,0.3-0.3,0.2-0.5,0.3
		c-0.2,0.2-0.5,0.3-0.8,0.2c-0.3,0-0.6-0.1-0.9-0.1c-0.1,0-0.3,0.1-0.4,0.1c-0.3,0.2-0.4,0.5-0.8,0.4c-0.1,0-0.2,0.1-0.2,0.1
		c-0.4,0.2-0.8,0.4-1.2,0.6c-0.5,0.2-1,0.4-1.6,0.6c-0.3,0.1-0.6,0.1-0.9,0.1c-0.1,0-0.2,0.1-0.4,0.2c-0.2,0.1-0.3,0.2-0.5,0.2
		C41.5,60.9,41.2,61,41,61c-0.2,0-0.5,0-0.7,0.1c-0.4,0.1-0.8,0-1.2,0.3c-0.1,0.1-0.3,0.2-0.4,0.2c-0.4,0.2-0.8,0.4-1.3,0.6
		c-0.1,0-0.1,0-0.2,0c-0.4,0.1-0.9,0-1.3,0.3c0,0-0.1,0-0.2,0c-0.3,0-0.6,0-0.9,0c0,0-0.1,0-0.1,0.1c-0.2,0.1-0.5,0.2-0.7,0.4
		c-0.2,0.1-0.4,0.2-0.5,0.4c-0.1,0.1-0.2,0.3-0.3,0.4c-0.2,0-0.3,0.1-0.3,0c-0.2-0.1-0.5-0.3-0.7-0.4C32.2,63.3,32,63.1,32,63
		c0.1-0.3,0.3-0.7,0.7-0.8c0.2-0.1,0.5,0.1,0.7,0.1c0.1,0,0.3,0.1,0.4,0c0.3-0.2,0.7-0.4,1.1-0.4c0.5-0.1,0.9-0.4,1.5-0.4
		c0.3,0,0.6-0.2,0.9-0.4c0.5-0.2,1.1-0.4,1.6-0.5c0.5-0.1,1.1-0.1,1.4-0.6c0-0.1,0.2-0.1,0.3-0.1c0.3-0.1,0.7-0.1,1-0.2
		c0.3-0.1,0.5-0.3,0.8-0.2c0.4,0,0.8-0.1,1.1-0.3c1-0.4,2-0.6,3-1.2c0,0,0.1,0,0.1,0c0.8-0.1,1.4-0.4,1.8-1.1
		c0.1-0.1,0.3-0.2,0.4-0.2c0.4,0.1,0.7,0.2,1.1,0.3c0,0,0,0,0,0.1C50,57.4,49.9,57.7,49.9,58z M66.1,50.5c-0.5-0.1-0.9-0.1-1.2,0.4
		c0,0-0.1,0.1-0.1,0.1c-0.4,0.1-0.8,0.2-1.2,0.4c-0.4,0.1-0.9,0.2-1.3,0.4c-0.4,0.2-0.7,0.6-1.2,0.4c0,0,0,0,0,0
		c-0.6,0.2-1.2,0.3-1.7,0.8c0,0-0.1,0.1-0.1,0.1c-0.3,0-0.5,0.1-0.8,0.1c-0.4,0-0.7,0.1-1.1,0.1c-0.1,0-0.3,0.1-0.4,0.1
		c-0.5-0.2-0.7-0.6-1-0.9c-0.2-0.8,0-1.2,0.7-1.6c0.5-0.3,1-0.5,1.6-0.6c0.3-0.1,0.6-0.3,1-0.1c0.1,0,0.2,0,0.2-0.1
		c0.4-0.2,0.8-0.3,1.2-0.1c0.3,0.1,0.6,0.1,0.9-0.2c0.2-0.2,0.4-0.3,0.7-0.3c0.3,0,0.6-0.2,0.9-0.2c0.2-0.1,0.4-0.2,0.6-0.1
		c0.4,0,0.7-0.1,0.9-0.3c0.1-0.1,0.2-0.2,0.3-0.2c0.4,0,0.8-0.1,1.2-0.1c0.1,0,0.3,0.1,0.3,0.2c0.2,0.3,0.3,0.6,0.4,0.9
		c0.1,0.2,0.1,0.3,0.1,0.5C67,50.1,66.2,50.6,66.1,50.5z M88.4,40.9c-0.5,0.1-1,0.3-1.5,0.4c-0.3,0.1-0.6,0.2-0.9,0.3
		c-0.2,0.1-0.3,0.2-0.5,0.2c-0.2,0.1-0.4,0.1-0.6,0.2c-0.2,0.1-0.5,0.1-0.7,0.1c-0.5,0.1-0.9,0.3-1.4,0.4c-0.6,0.1-1.2,0.4-1.8,0.7
		c-0.3,0.2-0.6,0.4-1,0.3c-0.3-0.1-0.4,0-0.6,0.2c-0.4,0.3-0.8,0.5-1.2,0.6c-0.3,0.1-0.4-0.1-0.6-0.2c-0.1,0,0-0.3,0-0.4
		c0.1-0.3,0.4-0.4,0.7-0.6c0.6-0.3,1.3-0.6,1.9-1c0,0,0,0,0,0c0.2-0.1,0.4-0.2,0.7-0.3c0.3-0.2,0.3-0.3,0.2-0.6c0-0.1,0-0.3,0-0.4
		c0.1-0.1,0.2-0.3,0.3-0.4c0.4-0.6,1-0.9,1.6-1c0.4-0.1,0.7-0.2,1.1-0.4c0.1-0.1,0.3-0.1,0.4-0.1c0.3,0,0.5,0,0.8-0.1
		c0.2,0,0.3,0.1,0.3,0.2c-0.1,0.4-0.2,0.9,0,1.3c0,0.1,0,0.1,0.1,0.2c0.1,0,0.2-0.1,0.3-0.1c0.1-0.1,0.3-0.2,0.4-0.3
		c0.2-0.1,0.4-0.1,0.6-0.2c0.4-0.1,0.8-0.3,1.2-0.4c0.4-0.1,0.7,0.1,0.8,0.5C89,40.4,88.6,40.8,88.4,40.9z"/>
	<path d="M58.8,56.4c-0.4,0-0.7,0.1-1.1,0.1c-0.1,0-0.3,0.1-0.4,0.1c-0.3-0.1-0.5-0.3-0.7-0.5c-0.1,0.1-0.1,0.1-0.1,0.2
		c-0.2,0.2-0.5,0.3-0.8,0.1c-0.1-0.1-0.3-0.1-0.4-0.1c-0.1-0.1-0.3-0.1-0.4-0.2c-0.1-0.1-0.2-0.2-0.3-0.3c-0.1-0.1-0.2-0.2-0.3-0.3
		c-0.1-0.1-0.1-0.3-0.2-0.4C53.9,55,54,54.9,54,54.8c0-0.1,0-0.3-0.1-0.3c-0.3-0.2-0.3-0.4-0.4-0.7c0-0.1,0-0.2-0.1-0.3
		c-0.1-0.3-0.2-0.5-0.3-0.8c0,0,0,0,0,0c0,0.1-0.1,0.2-0.1,0.3c0,0.4-0.1,0.9-0.1,1.3c0,0,0,0,0,0.1c0,0.1,0.1,0.3,0.1,0.4
		c0.2,0.6,0.5,1.3,0.8,2c0.1,0.1,0,0.3-0.2,0.4c-0.1,0.1-0.3,0.1-0.4,0.1c-0.1,0-0.1,0-0.2,0c0.1,0.3,0.2,0.6,0.3,0.9
		c0.2,0.4,0.3,0.8,0.5,1.3c0.2,0,0.3,0,0.5,0.1c0.1,0,0.3,0,0.3-0.1c0.3-0.3,0.6-0.4,1-0.5c0.6-0.2,1.2-0.4,1.7-0.7
		c0.2-0.1,0.3-0.3,0.4-0.4c0.3-0.2,0.5-0.6,0.8-0.7c0.4-0.2,0.7-0.5,1-0.8c0,0-0.1,0-0.1,0.1C59.4,56.3,59.1,56.3,58.8,56.4z"/>
	<path fill="#FFFFFF" d="M98,41.5c-0.1-0.2-0.3-0.4-0.4-0.5c-0.2-0.2-0.4-0.4-0.6-0.6c-0.3-0.3-0.8-0.5-1.2-0.7
		c-0.3-0.1-0.6-0.2-0.9-0.3c-0.2-0.1-0.5-0.1-0.7-0.1c-0.2,0-0.5,0-0.7,0c-0.1,0-0.2,0-0.3,0.1c-0.1,0.2-0.1,0.5-0.2,0.7
		c-0.1,0.4-0.2,0.8-0.2,1.3c0,0.2,0,0.4,0,0.7c0,0.1,0,0.1,0,0.2c-0.2,0.4-0.1,0.8,0.2,1.1c0,0,0.1,0.1,0.1,0.2
		c-0.1,0.7,0.2,1.3,0.6,1.8c0.2,0.3,0.4,0.5,0.5,0.8c0.1,0.1,0.1,0.2,0.2,0.3c0,0,0.1,0.1,0.2,0.1c0.4,0,0.8-0.1,1.1-0.1
		c0.4-0.3,0.9-0.5,1.3-0.8c0.2-0.1,0.3-0.4,0.4-0.5c0.3-0.4,0.7-0.8,0.7-1.2c0-0.1,0-0.1,0-0.2c0.1-0.3,0.2-0.6,0.3-0.9
		C98.5,42.3,98.3,41.9,98,41.5z"/>
	<path fill="#FFFFFF" d="M66.9,51.8c0-0.1-0.2-0.2-0.3-0.2c-0.4,0-0.8,0-1.2,0.1c-0.1,0-0.2,0.1-0.3,0.2c-0.3,0.2-0.6,0.4-0.9,0.3
		c-0.2,0-0.4,0.1-0.6,0.1c-0.3,0.1-0.6,0.2-0.9,0.2c-0.3,0-0.5,0.1-0.7,0.3c-0.3,0.3-0.6,0.3-0.9,0.2c-0.4-0.2-0.8-0.1-1.2,0.1
		c-0.1,0-0.2,0.1-0.2,0.1c-0.3-0.1-0.6,0.1-1,0.1c-0.6,0.1-1.1,0.4-1.6,0.6c-0.1,0.1-0.2,0.1-0.3,0.2c-0.5,0.3-0.6,0.7-0.4,1.4
		c0.1,0.1,0.2,0.3,0.3,0.4c0.2,0.2,0.4,0.4,0.7,0.5c0.1,0,0.3-0.1,0.4-0.1c0.4,0,0.7-0.1,1.1-0.1c0.3,0,0.5-0.1,0.8-0.1
		c0,0,0.1,0,0.1-0.1c0,0,0,0,0,0c0.5-0.4,1.1-0.6,1.7-0.8c0,0,0,0,0,0c0.5,0.2,0.8-0.2,1.2-0.4c0.4-0.2,0.8-0.3,1.3-0.4
		c0.4-0.1,0.8-0.2,1.2-0.4c0,0,0.1,0,0.1-0.1c0.3-0.5,0.7-0.5,1.2-0.4c0.2,0,0.9-0.4,0.9-0.5c0-0.1,0-0.1,0-0.2c0-0.1,0-0.2-0.1-0.3
		C67.2,52.4,67,52.1,66.9,51.8z"/>
	<path fill="#FFFFFF" d="M84.6,45.4c0.2-0.1,0.5-0.1,0.7-0.1c0.2,0,0.4-0.1,0.6-0.2c0.2-0.1,0.3-0.1,0.5-0.2
		c0.2-0.1,0.3-0.1,0.5-0.2c0.1-0.1,0.3-0.1,0.4-0.1c0.5-0.1,1-0.3,1.5-0.4c0.3-0.1,0.6-0.6,0.6-0.8c-0.1-0.4-0.3-0.6-0.8-0.5
		c-0.4,0.1-0.8,0.2-1.2,0.4c-0.2,0.1-0.4,0.1-0.6,0.2c-0.2,0.1-0.3,0.2-0.4,0.3c0,0-0.1,0-0.1,0.1c0,0-0.1,0-0.1,0.1
		c0-0.1,0-0.1-0.1-0.2c-0.1-0.1-0.1-0.2-0.1-0.4c0-0.3,0.1-0.6,0.1-0.9c0-0.2,0-0.3-0.3-0.2c-0.3,0-0.5,0-0.8,0.1
		c-0.1,0-0.3,0.1-0.4,0.1c-0.3,0.2-0.7,0.3-1.1,0.4c-0.7,0.1-1.3,0.5-1.6,1c-0.1,0.1-0.2,0.3-0.3,0.4c0,0.1-0.1,0.2-0.1,0.2
		c0,0.1,0,0.1,0,0.2c0.1,0.2,0.1,0.4-0.1,0.5c0,0,0,0-0.1,0.1c-0.2,0.1-0.4,0.2-0.7,0.3c0,0,0,0,0,0c-0.6,0.3-1.2,0.7-1.9,1
		c-0.3,0.1-0.5,0.3-0.7,0.6C78,47,78,47.3,78,47.3c0.2,0.1,0.3,0.3,0.6,0.2c0.4-0.1,0.9-0.3,1.2-0.6c0.2-0.1,0.4-0.2,0.6-0.2
		c0.4,0.1,0.7-0.2,1-0.3c0.1-0.1,0.2-0.1,0.3-0.2c0.5-0.2,0.9-0.4,1.5-0.5C83.7,45.7,84.2,45.6,84.6,45.4z"/>
	<path fill="#FFFFFF" d="M87,47.5c-0.2-0.3-0.3-0.5-0.5-0.8c0-0.1-0.1-0.1-0.1-0.2c-0.2-0.3-0.2-0.4-0.7-0.2c0,0-0.2,0.1-0.3,0.1
		c-0.4-0.1-0.6,0.1-0.8,0.3c-0.2,0.2-0.5,0.4-0.8,0.4c-0.3,0-0.5,0.2-0.8,0.3c0,0,0,0,0,0c-0.1,0.1-0.3,0.1-0.4,0.2
		c-0.1,0-0.2,0-0.3,0c-0.6,0.1-0.6,0.1-0.4,0.6c0,0,0,0,0,0.1c0,0.7,0.4,1.2,0.6,1.8c0,0,0,0,0,0.1c0.2,0.4,0.8,0.6,1.3,0.5
		c0.5-0.1,1-0.1,1.4-0.2c0.3,0,0.6-0.1,0.8-0.2c0.6-0.2,1.2-0.4,1.8-0.6c0.2-0.1,0.3-0.3,0.2-0.5c-0.1-0.2-0.2-0.4-0.3-0.6
		c-0.1-0.1-0.1-0.2-0.2-0.3C87.3,47.9,87.1,47.7,87,47.5z"/>
	<path fill="#FFFFFF" d="M53.2,57.2c0-0.2-0.1-0.3-0.1-0.5c-0.1-0.2-0.2-0.3-0.2-0.5c0-0.3,0-0.6,0-0.9c0-0.3,0.1-0.6,0.1-0.8
		c0,0,0,0,0-0.1c0-0.4,0.1-0.9,0.1-1.3c0-0.1,0.1-0.2,0.1-0.3c0,0,0,0,0,0c0-0.1,0-0.2,0-0.2c0,0,0,0,0,0c0,0-0.1,0-0.2,0
		c-0.2,0-0.3,0.1-0.5,0.1c-0.1,0-0.1,0-0.2,0c-0.5,0-0.8,0.4-1,0.7C51,53.7,51,54.1,51,54.5c0,0,0,0.1,0,0.1c0,0.1,0,0.2,0,0.4
		c-0.1,0.2-0.2,0.4,0,0.6c0.1,0.2,0,0.4,0,0.6c0,0.3,0,0.6,0.1,0.8c0.2,0.5,0.5,0.9,0.6,1.3c0.1,0.4,0.3,0.6,0.5,0.9
		c0.1,0.2,0.3,0.3,0.5,0.4c0,0,0,0,0.1,0c0.1,0,0.2,0.1,0.2,0.2c0.2,0.4,0.5,0.5,0.9,0.6c0.1,0,0.3,0,0.4-0.1
		c0.1-0.1,0.3-0.3,0.2-0.4c-0.1-0.2-0.2-0.5-0.3-0.7c-0.2-0.4-0.4-0.9-0.5-1.3C53.4,57.8,53.3,57.5,53.2,57.2z"/>
</g>
</svg>
