<?xml version="1.0" encoding="utf-8"?>
<!-- Generator: Adobe Illustrator 17.1.0, SVG Export Plug-In . SVG Version: 6.00 Build 0)  -->
<!DOCTYPE svg PUBLIC "-//W3C//DTD SVG 1.1//EN" "http://www.w3.org/Graphics/SVG/1.1/DTD/svg11.dtd">
<svg version="1.1" id="Layer_1" xmlns="http://www.w3.org/2000/svg" xmlns:xlink="http://www.w3.org/1999/xlink" x="0px" y="0px"
	 viewBox="0 0 100 100" enable-background="new 0 0 100 100" xml:space="preserve">
<g>
	<rect x="27.8" y="24.6" fill="none" width="0.1" height="6.6"/>
	<rect x="27.8" y="32.4" fill="none" width="0.1" height="6.6"/>
	<rect x="27.9" y="24.6" fill="none" width="4" height="6.6"/>
	<rect x="29.1" y="42.4" fill="none" width="12.1" height="14.6"/>
	<rect x="27.9" y="32.4" fill="none" width="4" height="6.6"/>
	<rect x="38.1" y="32.4" fill="none" width="4.5" height="6.6"/>
	<rect x="46.8" y="24.6" fill="none" width="1.3" height="71"/>
	<rect x="38.1" y="24.6" fill="none" width="4.5" height="6.6"/>
	<path fill="none" d="M27.9,95.6h14.7V79.3H27.9V95.6z M29.1,79.9h12.2v14.6H29.1V79.9z"/>
	<rect x="45.8" y="1.8" fill="none" width="2.7" height="3.3"/>
	<rect x="33.2" y="24.6" fill="none" width="3.6" height="6.6"/>
	<rect x="33.2" y="32.4" fill="none" width="3.6" height="6.6"/>
	<path fill="none" d="M27.9,76.6h14.7V60.5H27.9V76.6z M29.1,61.4h12.2V76H29.1V61.4z"/>
	<rect x="52.3" y="24.6" fill="none" width="4.3" height="6.1"/>
	<rect x="57.9" y="24.6" fill="none" width="3.7" height="6.1"/>
	<rect x="52.3" y="31.8" fill="none" width="4.3" height="7.2"/>
	<rect x="62.9" y="31.8" fill="none" width="4.1" height="7.2"/>
	<rect x="57.9" y="31.8" fill="none" width="3.7" height="7.2"/>
	<rect x="62.9" y="24.6" fill="none" width="4.1" height="6.1"/>
	<path fill="none" d="M24.3,22.3h3.6h14.7h4.2h1.3h4.2H67h0h3.7v-5.2H24.3V22.3z M24.7,17.8h45.4v3.8H24.7V17.8z"/>
	<path fill="none" d="M52.3,57.7H67v-16H52.3V57.7z M53.6,42.4h12.2V57H53.6V42.4z"/>
	<path fill="none" d="M52.3,76.6H67V60.5H52.3V76.6z M53.6,61.4h12.2V76H53.6V61.4z"/>
	<path fill="none" d="M52.3,95.6H67V79.3H52.3V95.6z M53.6,79.9h12.2v14.6H53.6V79.9z"/>
	<rect x="24.7" y="17.8" fill="#0855A3" width="45.4" height="3.8"/>
	<path fill="#0855A3" d="M71.5,16.3v-0.1v-3.5H70v-3h-1.6l-17.1-3V5.1h-1.8V1.8V1.1h-1h-2.7h-1.1v0.7v3.3h-1v1.5l-18,3.1h-1v3h-1.4
		v3.5h-1.9v6.1v0.6h1.9v1.7h0.3v72.5h-2.2v3h51.9v-3h-2.1V24.6h0.3v-1.7h1.8v-0.6v-5.2v-0.8H71.5z M45.8,1.8h2.7v3.3h-2.7V1.8z
		 M36.8,32.4V39h-3.6v-6.6H36.8z M33.2,31.2v-6.6h3.6v6.6H33.2z M41.2,42.4h0.1V57h-0.1H29.1V42.4H41.2z M32,31.2L32,31.2h-4.1h-0.1
		v-6.6h0.1h4H32V31.2z M27.9,32.4h4H32V39h-0.1h-4h-0.1L27.9,32.4C27.8,32.4,27.8,32.4,27.9,32.4z M27.9,97.1h14.7H27.9z M42.6,95.6
		H27.9V79.3h14.7V95.6z M42.6,76.6H27.9V60.5h14.7V76.6z M42.6,39h-4.5v-6.6h4.5V39z M42.6,31.2h-4.5v-6.6h4.5V31.2z M46.8,97.1h1.3
		H46.8z M48.1,95.6h-1.3v-71h1.3V95.6z M52.3,97.1H67H52.3z M67,95.6H52.3V79.3H67V95.6z M67,76.6H52.3V60.5H67V76.6z M67,57.7H52.3
		v-16H67V57.7z M56.6,31.8V39h-4.3v-7.2H56.6z M52.3,30.7v-6.1h4.3v6.1H52.3z M61.6,31.8V39h-3.7v-7.2H61.6z M57.9,30.7v-6.1h3.7
		v6.1H57.9z M67,39h-4.1v-7.2H67V39z M67,30.7h-4.1v-6.1H67V30.7z M70.7,22.3H67h0H52.3h-4.2h-1.3h-4.2H27.9h-3.6v-5.2h46.4V22.3z"
		/>
	<rect x="31.9" y="24.6" fill="#0855A3" width="0.1" height="6.6"/>
	<rect x="41.2" y="42.4" fill="#0855A3" width="0.1" height="14.6"/>
	<rect x="31.9" y="32.4" fill="#0855A3" width="0.1" height="6.6"/>
</g>
</svg>
