<?xml version="1.0" encoding="utf-8"?>
<!-- Generator: Adobe Illustrator 18.1.0, SVG Export Plug-In . SVG Version: 6.00 Build 0)  -->
<svg version="1.1" id="Layer_1" xmlns="http://www.w3.org/2000/svg" xmlns:xlink="http://www.w3.org/1999/xlink" x="0px" y="0px"
	 viewBox="0 0 100 100" enable-background="new 0 0 100 100" xml:space="preserve">
<g>
	<rect x="33.5" y="42.1" fill="none" width="13.4" height="14.7"/>
	<path fill="none" d="M57.8,95.2H72V79.2H57.8V95.2z M58.6,80.2h12.1v13.7H58.6V80.2z"/>
	<path fill="none" d="M42.4,24.1h-4.4c0,2.2,0,4.5,0,6.7c0,0,0,0.1,0,0.1v0h4.5C42.4,28.7,42.4,26.4,42.4,24.1z"/>
	<polygon fill="none" points="52.2,38.8 52.3,38.8 52.3,41.5 52.2,41.5 52.2,57.5 52.3,57.5 52.3,60.4 52.2,60.4 52.2,76 52.3,76 
		52.3,79.2 52.2,79.2 52.2,95.2 53.2,95.2 53.2,79.2 53.1,79.2 53.1,76 53.2,76 53.2,60.4 53.1,60.4 53.1,57.5 53.2,57.5 53.2,41.5 
		53.1,41.5 53.1,38.8 53.2,38.8 53.2,24.1 52.2,24.1 	"/>
	<path fill="none" d="M43.4,31h4.2v-6.9h-4.3C43.3,26.4,43.4,28.7,43.4,31z"/>
	<path fill="none" d="M38,38.7c0.1,0,0.1,0,0.2,0c0,0,0,0.1,0,0.1h4.2v-6.9H38v0.4c0,0,0,0,0,0.1c0,0,0,0,0,0V38.7z"/>
	<path fill="none" d="M43.4,32.3c-0.1,0-0.1,0-0.2,0v6.4c0.1,0,0.2,0,0.2,0c0,0,0,0.1,0,0.1h4.1v-6.9h-4.2L43.4,32.3z"/>
	<rect x="52.7" y="1.6" fill="none" width="1.7" height="2.9"/>
	<path fill="none" d="M32.9,95.2h14.8V79.2H32.9V95.2z M34.2,80.2h12.1v13.7H34.2V80.2z"/>
	<path fill="none" d="M32.9,24.1V31c0.1,0,0.1,0,0.2,0H37c0-2.3,0-4.6,0-6.9H32.9z"/>
	<path fill="none" d="M32.9,38.8H37v-6.6c0,0,0,0,0,0c0-0.1,0-0.2,0-0.3h-4c-0.1,0-0.1,0-0.2,0V38.8z"/>
	<path fill="none" d="M32.9,76h14.8V60.4H32.9V76z M34.2,61.3h12.1V75H34.2V61.3z"/>
	<rect x="62.8" y="31.9" fill="none" width="3.9" height="6.9"/>
	<rect x="67.7" y="24.1" fill="none" width="4.3" height="6.9"/>
	<rect x="62.8" y="24.1" fill="none" width="3.9" height="6.9"/>
	<rect x="67.7" y="31.9" fill="none" width="4.3" height="6.9"/>
	<path fill="none" d="M75.4,17c-0.1-0.1-0.2-0.2-0.4-0.2H30.8c-0.1,0-0.2,0-0.4,0c0,0,0,0,0,0c-0.1,0-0.1,0.1-0.1,0.1c0,0,0,0,0,0
		c0,0-0.1,0.1-0.1,0.1c0,0.1,0,0.2,0,0.3v2.9c0,0.3,0.2,0.5,0.4,0.5c0.1,0,0.2,0.1,0.2,0.1H75c0.3,0,0.5-0.2,0.5-0.4
		c0-0.1,0.1-0.2,0.1-0.3v-2.8C75.6,17.3,75.5,17.1,75.4,17z M75.3,20.6H30.5v-3.5h44.7V20.6z"/>
	<polygon fill="none" points="61.9,31 61.9,24.1 57.8,24.1 57.8,31 57.8,31 	"/>
	<path fill="none" d="M57.8,57.5H72v-16H57.8V57.5z M58.6,42.4h12.1v14.4H58.6V42.4z"/>
	<path fill="none" d="M57.8,76H72V60.4H57.8V76z M58.6,61.3h12.1V75H58.6V61.3z"/>
	<polygon fill="none" points="57.8,38.8 61.9,38.8 61.9,31.9 57.8,31.9 57.8,31.9 	"/>
	<path fill="#1056A7" d="M78.3,22.4v-7.1h-1.7V14v-1.3h-0.7V9.6h-1.3l-17.8-3V5H50v1.6l-17.9,3h-1.3v3.1h-2.5V14v1.2h-2v7.1h2v75.2
		h-1.9v2.2h51.7v-2.2h-1.5V22.4H78.3z M47.6,95.2H32.9V79.2h14.8V95.2z M47.6,76H32.9V60.4h14.8V76z M37,31h-3.9c-0.1,0-0.1,0-0.2,0
		v-6.9H37C37,26.4,37,28.7,37,31z M33.1,31.9h4c0,0.1,0,0.2,0,0.3c0,0,0,0,0,0v6.6h-4.2v-6.9C32.9,31.9,33,31.9,33.1,31.9z M38,32.3
		v-0.4h4.4v6.9h-4.2c0,0,0-0.1,0-0.1c-0.1,0-0.1,0-0.2,0V32.3C38,32.4,38,32.4,38,32.3C38,32.4,38,32.4,38,32.3z M38,31L38,31
		c0-0.1,0-0.1,0-0.1c0-2.2,0-4.5,0-6.7h4.4c0,2.3,0.1,4.6,0.1,6.9H38z M46.9,42.1v14.7H33.5V42.1H46.9z M47.6,38.8h-4.1
		c0,0,0-0.1,0-0.1c-0.1,0-0.1,0-0.2,0v-6.4c0.1,0,0.1,0,0.2,0l0-0.4h4.2V38.8z M47.6,31h-4.2c0-2.3-0.1-4.6-0.1-6.9h4.3V31z
		 M53.2,38.8L53.2,38.8l0,2.7h0v16h0v2.9h0V76h0v3.2h0v16.1h-0.9V79.2h0V76h0V60.4h0v-2.9h0v-16h0v-2.7h0V24.1h0.9V38.8z M72,95.2
		H57.8V79.2H72V95.2z M72,76H57.8V60.4H72V76z M72,57.5H57.8v-16H72V57.5z M57.8,31.9h4.1v6.9h-4.1L57.8,31.9
		C57.8,31.9,57.8,31.9,57.8,31.9z M57.8,31v-6.9h4.1V31L57.8,31C57.8,31,57.8,31,57.8,31z M66.7,31.9v6.9h-3.9v-6.9H66.7z M62.8,31
		v-6.9h3.9V31H62.8z M72,38.8h-4.3v-6.9H72V38.8z M72,31h-4.3v-6.9H72V31z M75.6,20.2c0,0.1,0,0.2-0.1,0.3c0,0.2-0.2,0.4-0.5,0.4
		H30.8c-0.1,0-0.2,0-0.2-0.1c-0.2-0.1-0.4-0.2-0.4-0.5v-2.9c0-0.1,0-0.2,0-0.3c0-0.1,0-0.1,0.1-0.1c0,0,0,0,0,0c0,0,0.1-0.1,0.1-0.1
		c0,0,0,0,0,0c0.1-0.1,0.2-0.1,0.4,0H75c0.2,0,0.3,0.1,0.4,0.2c0.1,0.1,0.2,0.2,0.2,0.4V20.2z"/>
	<rect x="58.6" y="42.4" fill="#1056A7" width="12.1" height="14.4"/>
	<rect x="58.6" y="61.3" fill="#1056A7" width="12.1" height="13.7"/>
	<rect x="58.6" y="80.2" fill="#1056A7" width="12.1" height="13.7"/>
	<rect x="34.2" y="61.3" fill="#1056A7" width="12.1" height="13.7"/>
	<rect x="34.2" y="80.2" fill="#1056A7" width="12.1" height="13.7"/>
	<rect x="30.5" y="17.1" fill="#1056A7" width="44.7" height="3.5"/>
	<path fill="#1056A7" d="M55.5,4.8V4.5V1.6V0.7h-0.8V0.2h-2.3v0.5h-1v0.9v2.9v0.3V5h4.2V4.8z M54.4,4.5h-1.7V1.6h1.7V4.5z"/>
</g>
</svg>
